<svg width="818" height="708" viewBox="0 0 818 708" fill="none" xmlns="http://www.w3.org/2000/svg">
<path d="M749.615 472.863H506.342V115.724H749.615V472.863ZM512.886 466.319H743.071V122.268H512.886V466.319Z" fill="#EBEBEB"/>
<path d="M631.169 124.068H624.625V469.591H631.169V124.068Z" fill="#EBEBEB"/>
<path d="M755.505 128.976H500.452V138.138H755.505V128.976Z" fill="#EBEBEB"/>
<path d="M755.505 139.283H500.452V148.444H755.505V139.283Z" fill="#EBEBEB"/>
<path d="M755.505 149.59H500.452V158.751H755.505V149.59Z" fill="#EBEBEB"/>
<path d="M755.505 159.733H500.452V168.895H755.505V159.733Z" fill="#EBEBEB"/>
<path d="M755.505 170.04H500.452V179.201H755.505V170.04Z" fill="#EBEBEB"/>
<path d="M755.505 180.346H500.452V189.508H755.505V180.346Z" fill="#EBEBEB"/>
<path d="M755.505 190.49H500.452V199.651H755.505V190.49Z" fill="#EBEBEB"/>
<path d="M755.505 200.796H500.452V209.958H755.505V200.796Z" fill="#EBEBEB"/>
<path d="M755.505 211.103H500.452V220.265H755.505V211.103Z" fill="#EBEBEB"/>
<path d="M736.2 127.176H734.564V337.239H736.2V127.176Z" fill="#263238"/>
<path d="M738.327 344.764H732.437L733.91 336.421H736.854L738.327 344.764Z" fill="#263238"/>
<path d="M742.09 127.176H740.454V414.622H742.09V127.176Z" fill="#263238"/>
<path d="M744.217 420.838H738.327L739.799 412.495H742.744L744.217 420.838Z" fill="#263238"/>
<path d="M765.812 114.579H490.309V133.72H765.812V114.579Z" fill="#DBDBDB"/>
<path d="M41.7483 297.197C41.7483 295.889 41.9119 292.126 41.9119 290.653C41.9119 283.946 39.6215 281.001 33.4047 280.837C30.4599 280.674 28.8239 278.874 28.8239 276.42C28.8239 273.966 30.6235 272.167 33.4047 272.003C39.6215 271.676 41.9119 268.731 41.9119 262.023C41.9119 260.551 41.7483 256.788 41.7483 255.479C41.7483 246.645 45.5111 240.919 59.5807 237.811C62.3619 237.156 64.6523 238.956 64.6523 241.573C64.6523 243.7 63.1799 245.009 62.0347 245.336C53.2003 248.117 51.8915 250.899 51.8915 257.115C51.8915 258.915 52.0551 262.023 52.0551 263.823C52.0551 270.858 48.6195 274.457 42.5663 276.257C48.6195 278.22 52.0551 281.655 52.0551 288.69C52.0551 290.653 51.8915 293.598 51.8915 295.398C51.8915 301.615 53.2003 304.396 62.0347 307.177C63.1799 307.504 64.6523 308.649 64.6523 310.94C64.6523 313.557 62.5255 315.357 59.5807 314.703C45.5111 311.921 41.7483 306.195 41.7483 297.197Z" fill="#EBEBEB"/>
<path d="M95.2454 255.643C95.2454 256.952 95.0818 260.715 95.0818 262.187C95.0818 268.895 97.5358 271.839 103.753 272.167C106.534 272.33 108.333 274.13 108.333 276.584C108.333 279.038 106.534 280.837 103.753 281.001C97.5358 281.165 95.0818 284.273 95.0818 290.817C95.0818 292.289 95.2454 296.052 95.2454 297.361C95.2454 306.359 91.4826 311.921 77.413 315.03C74.6318 315.684 72.3414 313.885 72.3414 311.267C72.3414 309.14 73.8138 307.831 74.959 307.504C83.7934 304.723 84.9386 301.942 84.9386 295.725C84.9386 293.925 84.775 290.817 84.775 289.017C84.775 281.983 88.2106 278.383 94.2638 276.584C88.2106 274.621 84.775 271.185 84.775 264.15C84.775 262.187 84.9386 259.242 84.9386 257.443C84.9386 251.226 83.6298 248.445 74.959 245.663C73.8138 245.336 72.3414 244.191 72.3414 241.901C72.3414 239.283 74.4682 237.483 77.413 238.138C91.4826 241.083 95.2454 246.809 95.2454 255.643Z" fill="#EBEBEB"/>
<path d="M349.45 174.293C351.576 176.42 351.576 179.856 349.45 181.982C348.304 182.964 346.996 183.455 345.687 183.455C344.214 183.455 342.906 182.964 341.76 181.982L317.875 157.77C317.548 157.606 317.548 157.442 317.384 157.279C317.22 157.115 317.057 157.115 317.057 157.115C316.893 156.788 316.893 156.624 316.73 156.461C316.566 156.297 316.402 156.134 316.402 156.134C316.239 155.97 316.239 155.643 316.239 155.643C316.239 155.316 316.075 155.316 316.075 155.152C316.075 154.825 316.075 154.661 316.075 154.498C316.075 154.334 315.912 154.17 315.912 154.007C315.912 153.843 316.075 153.68 316.075 153.516C316.075 153.352 316.075 153.025 316.075 152.862C316.075 152.698 316.239 152.534 316.239 152.534C316.402 152.207 316.402 152.044 316.402 151.88C316.402 151.716 316.566 151.716 316.566 151.716C316.73 151.389 316.893 151.062 317.057 150.898C317.057 150.898 317.057 150.735 317.22 150.735C317.384 150.571 317.548 150.244 317.711 150.08L341.597 125.868C343.724 123.904 347.159 123.904 349.286 125.868C351.413 127.994 351.413 131.43 349.286 133.557L329.163 153.843L349.45 174.293Z" fill="#EBEBEB"/>
<path d="M371.045 177.075L391.822 127.667C392.804 125.213 395.585 124.232 398.039 125.213C400.329 126.195 401.474 128.976 400.493 131.267L379.716 180.837C378.898 182.637 377.098 183.619 375.462 183.619C374.971 183.619 374.317 183.455 373.826 183.291C371.208 182.31 370.063 179.529 371.045 177.075Z" fill="#EBEBEB"/>
<path d="M441.556 157.115C441.556 157.115 441.556 157.279 441.556 157.115C441.229 157.442 441.066 157.606 440.902 157.77L417.016 181.982C416.035 182.964 414.562 183.455 413.254 183.455C411.781 183.455 410.472 182.964 409.491 181.982C407.364 179.856 407.364 176.584 409.491 174.293L429.614 154.007L409.491 133.72C407.364 131.594 407.364 128.158 409.491 126.031C411.454 124.068 415.053 124.068 417.18 126.031L441.066 150.244C441.393 150.408 441.556 150.735 441.72 150.898C441.884 150.898 441.884 151.062 441.884 151.062C442.047 151.389 442.211 151.553 442.374 151.88C442.374 152.044 442.538 152.044 442.538 152.044C442.702 152.371 442.702 152.534 442.865 152.862C442.865 153.025 443.029 153.025 443.029 153.189C443.029 153.352 443.029 153.68 443.029 153.843C443.029 154.007 443.192 154.17 443.192 154.334C443.192 154.498 443.029 154.661 443.029 154.825C443.029 155.152 443.029 155.316 443.029 155.479C443.029 155.643 442.865 155.643 442.865 155.643C442.702 155.97 442.702 156.297 442.538 156.461C442.538 156.624 442.374 156.624 442.374 156.788C441.884 156.624 441.72 156.788 441.556 157.115Z" fill="#EBEBEB"/>
<path d="M719.84 706.179H521.72L561.312 476.485H709.37L719.84 706.179Z" fill="#D0CFCF"/>
<path d="M719.84 706.179H702.498L692.846 476.485H709.37L719.84 706.179Z" fill="#A6A6A6"/>
<path d="M204.515 90.726H41.8961V194.448H204.515V90.726Z" fill="white"/>
<path d="M205.496 195.43H40.751V89.5808H205.333V195.43H205.496ZM42.8778 193.303H203.369V91.7076H42.8778V193.303Z" fill="#EBEBEB"/>
<path d="M204.515 90.726H41.8961V110.358H204.515V90.726Z" fill="#323E65"/>
<path d="M205.496 111.34H40.751V89.5808H205.333V111.34H205.496ZM42.8778 109.213H203.369V91.7076H42.8778V109.213Z" fill="#EBEBEB"/>
<path d="M60.2194 100.542C60.2194 103.323 57.929 105.45 55.3114 105.45C52.5302 105.45 50.4034 103.16 50.4034 100.542C50.4034 97.9244 52.6938 95.634 55.3114 95.634C58.0926 95.634 60.2194 97.9244 60.2194 100.542Z" fill="#A6A6A6"/>
<path d="M80.3422 100.542C80.3422 103.323 78.0518 105.45 75.4342 105.45C72.653 105.45 70.5262 103.16 70.5262 100.542C70.5262 97.9244 72.8166 95.634 75.4342 95.634C78.2154 95.634 80.3422 97.9244 80.3422 100.542Z" fill="#EBEBEB"/>
<path d="M100.629 100.542C100.629 103.323 98.3382 105.45 95.7206 105.45C92.9394 105.45 90.8126 103.16 90.8126 100.542C90.8126 97.9244 93.103 95.634 95.7206 95.634C98.3382 95.634 100.629 97.9244 100.629 100.542Z" fill="white"/>
<path d="M69.8718 149.131C69.8718 138.334 79.0334 129.499 89.9946 129.499C94.739 129.499 99.1562 131.135 102.592 133.753C103.901 134.898 104.064 136.698 103.083 138.17C101.937 139.479 99.9742 139.806 98.6654 138.824C96.2114 136.861 93.2666 135.88 89.831 135.88C86.0682 135.88 82.6326 137.352 80.015 139.806C77.561 142.26 76.0886 145.532 76.0886 149.295C76.0886 153.058 77.561 156.33 80.015 158.784C82.6326 161.238 86.0682 162.71 89.831 162.71C93.2666 162.71 96.2114 161.728 98.6654 159.765C99.9742 158.784 101.937 159.111 103.083 160.42C104.064 161.728 103.901 163.692 102.592 164.837C99.1562 167.454 94.739 169.09 89.9946 169.09C79.0334 168.763 69.8718 159.929 69.8718 149.131Z" fill="#EBEBEB"/>
<path d="M112.571 159.274C113.553 158.129 115.353 157.966 116.498 158.947C118.952 160.91 123.042 163.201 126.968 163.201C129.749 163.201 132.203 162.383 133.839 161.238C135.475 160.092 136.13 158.62 136.13 157.311C136.13 156.657 135.966 156.166 135.639 155.512C135.312 155.021 134.821 154.366 134.003 153.876C132.367 152.894 129.749 151.912 126.477 151.258H126.314C123.696 150.767 121.406 150.113 119.279 149.131C117.152 148.15 115.353 146.841 114.207 144.878C113.389 143.569 112.899 142.096 112.899 140.46C112.899 137.188 114.698 134.407 117.316 132.444C119.933 130.644 123.205 129.499 126.805 129.499C132.04 129.499 135.966 132.117 138.747 133.916C140.056 134.734 140.383 136.534 139.565 137.843C138.747 139.152 136.948 139.479 135.639 138.661C132.858 136.861 130.24 135.225 126.805 135.225C124.351 135.225 122.224 136.043 120.751 137.025C119.279 138.17 118.625 139.315 118.625 140.46C118.625 141.115 118.788 141.606 118.952 141.933C119.279 142.424 119.77 142.914 120.424 143.405C121.897 144.387 124.351 145.205 127.295 145.859H127.459C130.24 146.35 132.858 147.168 134.985 148.15C137.275 149.295 139.238 150.604 140.383 152.73C141.201 154.039 141.692 155.675 141.692 157.311C141.692 160.747 139.729 163.855 136.948 165.818C134.33 167.782 130.731 168.927 126.805 168.927C120.915 168.927 116.007 165.982 112.899 163.528C111.753 162.219 111.59 160.42 112.571 159.274Z" fill="#EBEBEB"/>
<path d="M148.4 159.274C149.381 158.129 151.181 157.966 152.326 158.947C154.78 160.91 158.87 163.201 162.797 163.201C165.578 163.201 168.032 162.383 169.668 161.238C171.304 160.092 171.958 158.62 171.958 157.311C171.958 156.657 171.795 156.166 171.467 155.512C171.14 155.021 170.649 154.366 169.831 153.876C168.195 152.894 165.578 151.912 162.306 151.258H162.142C159.525 150.767 157.234 150.113 155.107 149.131C152.981 148.15 151.181 146.841 150.036 144.878C149.218 143.569 148.727 142.096 148.727 140.46C148.727 137.188 150.527 134.407 153.144 132.444C155.762 130.644 159.034 129.499 162.633 129.499C167.868 129.499 171.795 132.117 174.576 133.916C175.885 134.734 176.212 136.534 175.394 137.843C174.576 139.152 172.776 139.479 171.467 138.661C168.686 136.861 166.069 135.225 162.633 135.225C160.179 135.225 158.052 136.043 156.58 137.025C155.107 138.17 154.453 139.315 154.453 140.46C154.453 141.115 154.617 141.606 154.78 141.933C155.107 142.424 155.598 142.914 156.253 143.405C157.725 144.387 160.179 145.205 163.124 145.859H163.287C166.069 146.35 168.686 147.168 170.813 148.15C173.103 149.295 175.067 150.604 176.212 152.73C177.03 154.039 177.521 155.675 177.521 157.311C177.521 160.747 175.557 163.855 172.776 165.818C170.159 167.782 166.559 168.927 162.633 168.927C156.743 168.927 151.835 165.982 148.727 163.528C147.582 162.219 147.418 160.42 148.4 159.274Z" fill="#EBEBEB"/>
<path d="M521.23 411.186H358.611V514.908H521.23V411.186Z" fill="white"/>
<path d="M522.211 516.054H357.63V410.204H522.211V516.054ZM359.593 513.927H520.248V412.331H359.756V513.927H359.593Z" fill="#EBEBEB"/>
<path d="M521.23 411.186H358.611V430.818H521.23V411.186Z" fill="#D5CDC5"/>
<path d="M522.211 431.963H357.63V410.368H522.211V431.963ZM359.593 429.836H520.248V412.331H359.756V429.836H359.593Z" fill="#EBEBEB"/>
<path d="M377.098 421.166C377.098 423.947 374.808 426.074 372.19 426.074C369.409 426.074 367.282 423.783 367.282 421.166C367.282 418.384 369.572 416.258 372.19 416.258C374.808 416.258 377.098 418.548 377.098 421.166Z" fill="#A6A6A6"/>
<path d="M397.221 421.166C397.221 423.947 394.93 426.074 392.313 426.074C389.532 426.074 387.405 423.783 387.405 421.166C387.405 418.384 389.695 416.258 392.313 416.258C394.93 416.258 397.221 418.548 397.221 421.166Z" fill="#EBEBEB"/>
<path d="M417.344 421.166C417.344 423.947 415.053 426.074 412.436 426.074C409.654 426.074 407.528 423.783 407.528 421.166C407.528 418.384 409.818 416.258 412.436 416.258C415.053 416.258 417.344 418.548 417.344 421.166Z" fill="white"/>
<path d="M389.041 469.591C389.041 458.794 398.202 449.959 409.164 449.959C413.908 449.959 418.325 451.595 421.761 454.213C423.07 455.358 423.233 457.158 422.252 458.63C421.106 459.939 419.143 460.266 417.834 459.284C415.38 457.321 412.436 456.34 409 456.34C405.237 456.34 401.802 457.812 399.184 460.266C396.73 462.72 395.258 465.992 395.258 469.755C395.258 473.518 396.73 476.79 399.184 479.244C401.802 481.698 405.237 483.17 409 483.17C412.436 483.17 415.38 482.188 417.834 480.225C419.143 479.244 421.106 479.571 422.252 480.88C423.233 482.188 423.07 484.152 421.761 485.297C418.325 487.914 413.908 489.55 409.164 489.55C398.039 489.387 389.041 480.552 389.041 469.591Z" fill="#EBEBEB"/>
<path d="M441.393 473.027H433.54C431.904 473.027 430.595 471.718 430.595 470.082C430.595 468.446 431.904 467.137 433.54 467.137H441.229V459.448C441.229 457.648 442.538 456.34 444.338 456.34C445.974 456.34 447.446 457.648 447.446 459.448V466.974H455.135C456.771 466.974 458.08 468.282 458.08 469.918C458.08 471.554 456.771 472.863 455.135 472.863H447.446V480.389C447.446 482.188 445.974 483.497 444.338 483.497C442.538 483.497 441.229 482.188 441.229 480.389V473.027H441.393Z" fill="#EBEBEB"/>
<path d="M475.258 473.027H467.569C465.933 473.027 464.624 471.718 464.624 470.082C464.624 468.446 465.933 467.137 467.569 467.137H475.258V459.448C475.258 457.648 476.567 456.34 478.366 456.34C480.002 456.34 481.475 457.648 481.475 459.448V466.974H489.164C490.8 466.974 492.109 468.282 492.109 469.918C492.109 471.554 490.8 472.863 489.164 472.863H481.475V480.389C481.475 482.188 480.002 483.497 478.366 483.497C476.567 483.497 475.258 482.188 475.258 480.389V473.027Z" fill="#EBEBEB"/>
<path d="M445.319 211.921H174.234V434.581H445.319V211.921Z" fill="white"/>
<path d="M446.464 435.726H173.252V210.94H446.464V435.726ZM175.216 433.599H444.338V213.066H175.216V433.599Z" fill="#EBEBEB"/>
<path d="M445.319 211.921H174.234V231.553H445.319V211.921Z" fill="#323E65"/>
<path d="M446.464 232.698H173.252V211.103H446.464V232.698ZM175.216 230.571H444.338V213.066H175.216V230.571Z" fill="#EBEBEB"/>
<path d="M192.557 221.901C192.557 224.682 190.267 226.809 187.649 226.809C184.868 226.809 182.741 224.518 182.741 221.901C182.741 219.12 185.032 216.993 187.649 216.993C190.43 216.993 192.557 219.12 192.557 221.901Z" fill="#A6A6A6"/>
<path d="M212.844 221.901C212.844 224.682 210.553 226.809 207.936 226.809C205.154 226.809 203.028 224.518 203.028 221.901C203.028 219.12 205.318 216.993 207.936 216.993C210.553 216.993 212.844 219.12 212.844 221.901Z" fill="#EBEBEB"/>
<path d="M232.966 221.901C232.966 224.682 230.676 226.809 228.058 226.809C225.277 226.809 223.15 224.518 223.15 221.901C223.15 219.12 225.441 216.993 228.058 216.993C230.676 216.993 232.966 219.12 232.966 221.901Z" fill="white"/>
<path d="M205.809 270.654H195.339V274.416H205.809V270.654Z" fill="#EBEBEB"/>
<path d="M333.58 270.654H213.334V274.416H333.58V270.654Z" fill="#EBEBEB"/>
<path d="M360.084 270.654H340.125V274.416H360.084V270.654Z" fill="#D5CDC5"/>
<path d="M405.565 321.86H385.605V325.623H405.565V321.86Z" fill="#EBEBEB"/>
<path d="M398.693 270.654H364.337V274.416H398.693V270.654Z" fill="#A6A6A6"/>
<path d="M216.279 280.797H205.809V284.56H216.279V280.797Z" fill="#EBEBEB"/>
<path d="M302.66 280.797H223.641V284.56H302.66V280.797Z" fill="#A6A6A6"/>
<path d="M381.024 321.86H334.726V325.623H381.024V321.86Z" fill="#A6A6A6"/>
<path d="M288.754 311.554H213.334V315.316H288.754V311.554Z" fill="#A6A6A6"/>
<path d="M276.484 291.104H223.641V294.866H276.484V291.104Z" fill="#D5CDC5"/>
<path d="M373.499 301.41H353.376V305.173H373.499V301.41Z" fill="#A6A6A6"/>
<path d="M366.791 291.104H282.374V294.866H366.791V291.104Z" fill="#A6A6A6"/>
<path d="M314.112 321.86H213.334V325.623H314.112V321.86Z" fill="#D5CDC5"/>
<path d="M416.853 280.797H362.21V284.56H416.853V280.797Z" fill="#D5CDC5"/>
<path d="M357.957 280.797H307.568V284.56H357.957V280.797Z" fill="#EBEBEB"/>
<path d="M404.91 291.104H370.881V294.866H404.91V291.104Z" fill="#EBEBEB"/>
<path d="M216.279 291.104H205.809V294.866H216.279V291.104Z" fill="#EBEBEB"/>
<path d="M205.809 301.41H195.339V305.173H205.809V301.41Z" fill="#A6A6A6"/>
<path d="M275.339 301.41H213.334V305.173H275.339V301.41Z" fill="#EBEBEB"/>
<path d="M285.646 332.167H223.641V335.93H285.646V332.167Z" fill="#EBEBEB"/>
<path d="M386.26 342.31H339.143V346.073H386.26V342.31Z" fill="#D5CDC5"/>
<path d="M352.722 332.167H290.554V335.93H352.722V332.167Z" fill="#D5CDC5"/>
<path d="M333.744 342.31H279.593V346.073H333.744V342.31Z" fill="#EBEBEB"/>
<path d="M241.637 342.31H223.641V346.073H241.637V342.31Z" fill="#A6A6A6"/>
<path d="M359.92 311.554H293.008V315.316H359.92V311.554Z" fill="#EBEBEB"/>
<path d="M407.037 311.554H364.337V315.316H407.037V311.554Z" fill="#D5CDC5"/>
<path d="M348.632 301.41H281.719V305.173H348.632V301.41Z" fill="#D5CDC5"/>
<path d="M205.809 311.554H195.339V315.316H205.809V311.554Z" fill="#EBEBEB"/>
<path d="M205.809 321.86H195.339V325.623H205.809V321.86Z" fill="#EBEBEB"/>
<path d="M216.279 332.167H205.809V335.93H216.279V332.167Z" fill="#A6A6A6"/>
<path d="M216.279 342.31H205.809V346.073H216.279V342.31Z" fill="#EBEBEB"/>
<path d="M205.809 350.981H195.339V354.744H205.809V350.981Z" fill="#EBEBEB"/>
<path d="M333.58 350.981H213.334V354.744H333.58V350.981Z" fill="#EBEBEB"/>
<path d="M216.279 361.124H205.809V364.887H216.279V361.124Z" fill="#EBEBEB"/>
<path d="M302.66 361.124H223.641V364.887H302.66V361.124Z" fill="#A6A6A6"/>
<path d="M288.754 391.881H213.334V395.644H288.754V391.881Z" fill="#A6A6A6"/>
<path d="M276.484 371.431H223.641V375.194H276.484V371.431Z" fill="#D5CDC5"/>
<path d="M366.791 371.431H282.374V375.194H366.791V371.431Z" fill="#A6A6A6"/>
<path d="M314.112 402.188H213.334V405.951H314.112V402.188Z" fill="#D5CDC5"/>
<path d="M416.853 361.124H362.21V364.887H416.853V361.124Z" fill="#D5CDC5"/>
<path d="M357.957 361.124H307.568V364.887H357.957V361.124Z" fill="#EBEBEB"/>
<path d="M404.91 371.431H370.881V375.194H404.91V371.431Z" fill="#EBEBEB"/>
<path d="M216.279 371.431H205.809V375.194H216.279V371.431Z" fill="#EBEBEB"/>
<path d="M205.809 381.738H195.339V385.501H205.809V381.738Z" fill="#A6A6A6"/>
<path d="M275.339 381.738H213.334V385.501H275.339V381.738Z" fill="#EBEBEB"/>
<path d="M359.92 391.881H293.008V395.644H359.92V391.881Z" fill="#EBEBEB"/>
<path d="M348.632 381.738H281.719V385.501H348.632V381.738Z" fill="#D5CDC5"/>
<path d="M205.809 391.881H195.339V395.644H205.809V391.881Z" fill="#EBEBEB"/>
<path d="M201.719 260.51C202.046 260.838 202.046 261.492 201.719 261.819C201.555 261.983 201.392 262.146 201.064 262.146C200.901 262.146 200.574 261.983 200.41 261.819L196.32 257.729C196.32 257.729 196.32 257.729 196.32 257.566C196.32 257.566 196.32 257.566 196.32 257.402C196.32 257.402 196.32 257.402 196.32 257.238C196.32 257.238 196.32 257.238 196.32 257.075C196.32 257.075 196.32 257.075 196.32 256.911C196.32 256.911 196.32 256.911 196.32 256.748C196.32 256.748 196.32 256.748 196.32 256.584V256.42C196.32 256.42 196.32 256.42 196.484 256.257L200.574 252.167C200.901 251.84 201.555 251.84 201.882 252.167C202.21 252.494 202.21 253.148 201.882 253.476L198.447 256.911L201.719 260.51Z" fill="#D5CDC5"/>
<path d="M205.482 261.001L209.081 252.658C209.245 252.33 209.735 252.003 210.063 252.167C210.39 252.33 210.717 252.821 210.39 253.148L206.791 261.492C206.627 261.819 206.3 261.983 206.136 261.983C205.973 261.983 205.973 261.983 205.809 261.983C205.482 261.819 205.155 261.328 205.482 261.001Z" fill="#D5CDC5"/>
<path d="M217.424 257.566C217.261 257.566 217.261 257.729 217.424 257.566L213.334 261.819C213.171 261.983 212.844 262.146 212.68 262.146C212.516 262.146 212.189 261.983 212.026 261.819C211.698 261.492 211.698 260.838 212.026 260.51L215.461 257.075L212.026 253.639C211.698 253.312 211.698 252.658 212.026 252.33C212.353 252.003 213.007 252.003 213.334 252.33L217.424 256.42C217.424 256.42 217.424 256.42 217.588 256.584V256.748C217.588 256.748 217.588 256.748 217.588 256.911C217.588 256.911 217.588 256.911 217.588 257.075C217.588 257.075 217.588 257.075 217.588 257.238V257.402C217.424 257.402 217.424 257.402 217.424 257.566Z" fill="#D5CDC5"/>
<path d="M476.24 180.674H365.482V221.737H476.24V180.674Z" fill="#455A64"/>
<path d="M381.515 209.794V191.635C381.515 190.653 382.333 189.999 383.151 189.999C384.133 189.999 384.951 190.817 384.951 191.635V198.997H392.967V191.635C392.967 190.653 393.785 189.999 394.603 189.999C395.585 189.999 396.403 190.817 396.403 191.635V209.794C396.403 210.776 395.585 211.43 394.603 211.43C393.622 211.43 392.967 210.612 392.967 209.794V202.432H384.951V209.794C384.951 210.776 384.133 211.43 383.151 211.43C382.17 211.43 381.515 210.776 381.515 209.794Z" fill="white"/>
<path d="M416.526 193.271H411.618V209.794C411.618 210.776 410.8 211.43 409.982 211.43C409 211.43 408.346 210.612 408.346 209.794V193.271H403.438C402.456 193.271 401.802 192.453 401.802 191.471C401.802 190.49 402.62 189.835 403.438 189.835H416.526C417.507 189.835 418.162 190.653 418.162 191.471C418.325 192.453 417.507 193.271 416.526 193.271Z" fill="white"/>
<path d="M441.884 191.635V209.794C441.884 210.776 441.066 211.43 440.084 211.43C439.102 211.43 438.448 210.612 438.448 209.794V196.87L434.031 203.087C433.704 203.578 433.213 203.741 432.722 203.741C432.231 203.741 431.577 203.414 431.25 203.087L426.832 196.87V209.794C426.832 210.776 426.014 211.43 425.033 211.43C424.051 211.43 423.397 210.612 423.397 209.794V191.635C423.397 190.653 424.215 189.999 425.033 189.999C425.033 189.999 425.033 189.999 425.196 189.999C425.687 189.999 426.178 190.326 426.505 190.653L432.722 199.16L438.775 190.653C439.102 190.162 439.593 189.999 440.084 189.999C441.066 189.835 441.884 190.653 441.884 191.635Z" fill="white"/>
<path d="M449.409 209.794V191.635C449.409 190.653 450.227 189.999 451.045 189.999C452.027 189.999 452.845 190.817 452.845 191.635V208.158H461.188C462.006 208.158 462.824 208.976 462.824 209.958C462.824 210.94 462.006 211.594 461.188 211.594H451.209C450.064 211.43 449.409 210.612 449.409 209.794Z" fill="white"/>
<path d="M180.287 337.402H88.9984V378.466H180.287V337.402Z" fill="#455A64"/>
<path d="M116.156 359.816H112.393V366.523C112.393 367.505 111.575 368.159 110.594 368.159C109.612 368.159 108.958 367.341 108.958 366.523V348.2C108.958 347.218 109.776 346.564 110.594 346.564H116.156C119.755 346.564 122.864 349.509 122.864 353.272C122.864 356.871 119.919 359.816 116.156 359.816ZM112.393 356.38H116.156C117.956 356.38 119.264 354.908 119.428 353.272C119.428 351.472 117.956 350 116.156 350H112.393V356.38Z" fill="white"/>
<path d="M126.954 366.36V348.2C126.954 347.218 127.772 346.564 128.59 346.564C129.571 346.564 130.389 347.382 130.389 348.2V355.562H138.406V348.2C138.406 347.218 139.224 346.564 140.042 346.564C141.023 346.564 141.841 347.382 141.841 348.2V366.36C141.841 367.341 141.023 367.996 140.042 367.996C139.06 367.996 138.406 367.178 138.406 366.36V358.998H130.389V366.36C130.389 367.341 129.571 367.996 128.59 367.996C127.772 368.159 126.954 367.341 126.954 366.36Z" fill="white"/>
<path d="M156.075 359.816H152.312V366.523C152.312 367.505 151.494 368.159 150.512 368.159C149.53 368.159 148.876 367.341 148.876 366.523V348.2C148.876 347.218 149.694 346.564 150.512 346.564H156.075C159.674 346.564 162.782 349.509 162.782 353.272C162.618 356.871 159.674 359.816 156.075 359.816ZM152.312 356.38H156.075C157.874 356.38 159.183 354.908 159.347 353.272C159.347 351.472 157.874 350 156.075 350H152.312V356.38Z" fill="white"/>
<path d="M449.409 334.785L456.28 351.472L449.409 354.417L442.374 337.566L430.922 346.4V299.284L463.97 332.658L449.409 334.785Z" fill="#263238"/>
<path d="M430.922 294.048C430.595 293.23 430.595 292.412 430.432 291.758C430.432 290.94 430.595 290.122 430.922 289.468C431.25 290.286 431.25 291.104 431.413 291.758C431.413 292.576 431.25 293.394 430.922 294.048Z" fill="#263238"/>
<path d="M426.833 295.848C426.015 295.521 425.36 295.03 424.869 294.539C424.379 294.048 423.888 293.394 423.561 292.576C424.379 292.903 425.033 293.394 425.524 293.885C426.015 294.376 426.505 295.03 426.833 295.848Z" fill="#263238"/>
<path d="M425.197 299.938C424.379 300.265 423.561 300.265 422.906 300.429C422.088 300.429 421.27 300.265 420.616 299.938C421.434 299.611 422.252 299.611 422.906 299.447C423.561 299.447 424.379 299.611 425.197 299.938Z" fill="#263238"/>
<path d="M426.833 304.028C426.505 304.846 426.015 305.5 425.524 305.991C425.033 306.482 424.379 306.973 423.561 307.3C423.888 306.482 424.379 305.828 424.869 305.337C425.524 304.846 426.015 304.355 426.833 304.028Z" fill="#263238"/>
<path d="M436.812 299.938C437.63 299.611 438.448 299.611 439.102 299.447C439.92 299.447 440.738 299.611 441.393 299.938C440.575 300.265 439.757 300.265 439.102 300.429C438.284 300.265 437.466 300.265 436.812 299.938Z" fill="#263238"/>
<path d="M435.012 295.848C435.34 295.03 435.83 294.376 436.321 293.885C436.812 293.394 437.466 292.903 438.284 292.576C437.957 293.394 437.466 294.048 436.976 294.539C436.485 295.03 435.83 295.521 435.012 295.848Z" fill="#263238"/>
<path d="M555.259 515.094C542.661 570.064 517.14 639.594 497.344 653.664C481.475 664.952 398.039 684.911 393.295 685.402C381.843 686.547 358.939 605.238 370.881 601.802C385.933 597.712 457.426 595.422 461.516 591.168C465.769 586.751 491.782 551.577 521.23 510.677C541.68 482.538 563.111 481.066 555.259 515.094Z" fill="#DD6A57"/>
<path d="M402.62 680.985C401.311 681.639 381.679 691.455 369.736 695.054C360.738 697.672 334.726 704.543 330.799 694.891C328.182 688.347 343.069 682.457 353.376 678.204C358.938 675.913 365.646 670.187 364.01 666.588C361.229 660.371 346.996 666.588 337.67 671.987C319.674 682.457 295.789 701.271 284.828 692.11C280.738 688.674 285.482 682.457 292.517 676.24C281.065 683.439 268.795 689.328 264.05 685.729C261.269 683.602 261.269 680.821 262.742 677.549C259.142 678.694 256.034 678.531 253.907 676.24C250.144 672.314 251.944 666.588 256.034 660.698C254.725 660.535 253.58 659.88 252.598 658.408C244.746 646.465 284.173 611.946 297.752 608.674C337.834 599.185 380.534 602.62 380.534 602.62C396.403 615.054 402.62 680.821 402.62 680.985Z" fill="#DD6A57"/>
<path d="M343.56 644.011C334.071 645.484 324.746 649.083 316.893 654.318C306.75 661.026 300.043 668.878 291.372 676.731C291.208 676.895 291.535 677.222 291.699 677.058C295.789 673.296 312.64 659.226 316.893 655.954C324.91 650.064 333.908 645.974 343.56 644.011C343.724 644.175 343.724 644.011 343.56 644.011Z" fill="#263238"/>
<path d="M336.034 626.997C325.564 629.942 314.766 632.723 304.95 637.794C294.316 643.193 285.809 652.191 277.629 660.698C272.721 665.77 267.813 671.005 263.069 676.404C262.905 676.568 263.232 677.058 263.396 676.731C271.74 667.897 280.41 659.226 289.245 651.046C297.588 643.193 306.914 637.304 317.548 633.214C323.601 630.923 329.818 629.124 336.034 627.324C336.198 627.16 336.198 626.997 336.034 626.997Z" fill="#263238"/>
<path d="M324.91 612.109C314.603 614.236 305.769 616.036 296.607 621.434C284.664 628.633 273.049 640.903 268.959 645.32C264.541 650.064 260.124 654.972 255.871 660.044C255.707 660.208 256.034 660.535 256.198 660.371C265.85 649.41 276.321 639.103 287.445 629.451C292.681 624.87 298.407 620.944 304.951 618.162C311.331 615.381 318.202 613.745 324.91 612.109Z" fill="#263238"/>
<path d="M462.17 583.316L539.062 580.044C539.062 580.044 552.968 541.925 558.203 508.06C563.275 474.194 534.481 486.301 506.015 522.784C477.385 559.266 462.17 583.316 462.17 583.316Z" fill="#E2E1DF"/>
<path d="M487.365 560.248C487.855 560.084 488.346 560.084 489.001 559.921C489.491 559.757 490.146 559.757 490.8 560.084C491.945 560.575 492.927 561.72 492.927 563.029C492.927 563.847 493.254 564.665 494.072 565.156C494.399 565.32 494.89 565.483 495.381 565.647C495.872 565.81 496.362 565.81 497.017 565.974C496.526 566.138 496.035 566.138 495.381 566.301C494.89 566.465 494.236 566.465 493.581 566.138C492.436 565.647 491.618 564.338 491.618 563.193C491.618 562.375 491.127 561.557 490.473 561.23C490.146 561.066 489.655 560.902 489.164 560.902C488.51 560.412 487.855 560.412 487.365 560.248ZM541.516 513.458C542.007 513.458 542.498 513.622 542.825 513.786C543.479 514.276 543.97 515.094 543.97 515.749C543.97 517.058 544.788 518.366 545.933 518.694C546.424 519.021 547.242 519.021 547.733 518.857C548.224 518.694 548.714 518.694 549.369 518.53C548.878 518.366 548.387 518.366 547.733 518.203C547.242 518.203 546.751 518.039 546.424 517.712C545.77 517.221 545.279 516.403 545.279 515.585C545.279 514.276 544.461 513.131 543.152 512.64C542.661 512.477 541.843 512.477 541.353 512.477C540.862 512.64 540.371 512.64 539.717 512.804C540.535 513.295 541.025 513.458 541.516 513.458ZM543.479 543.561C542.989 543.888 542.661 544.052 542.334 544.215C541.516 544.379 540.535 544.215 540.044 543.561C539.226 542.743 537.753 542.252 536.608 542.906C535.954 543.07 535.627 543.561 535.299 544.052C534.972 544.542 534.645 544.87 534.481 545.36C534.972 545.033 535.299 544.706 535.79 544.542C536.281 544.215 536.608 544.052 536.935 543.888C537.753 543.724 538.571 543.888 539.226 544.542C540.207 545.524 541.68 545.688 542.825 545.197C543.316 545.033 543.807 544.379 544.134 544.052C544.461 543.561 544.788 543.234 544.952 542.743C544.297 542.906 543.97 543.234 543.479 543.561ZM522.539 508.55C522.048 508.878 521.721 509.041 521.23 509.205C520.412 509.368 519.594 509.205 518.939 508.55C518.776 508.387 518.612 508.223 518.449 508.223C518.121 508.55 517.794 508.878 517.631 509.205C517.794 509.205 517.958 509.368 518.121 509.532C519.103 510.514 520.575 510.677 521.721 510.186C522.211 510.023 522.702 509.532 523.029 509.041C523.357 508.55 523.684 508.223 523.847 507.732C523.52 507.896 523.029 508.223 522.539 508.55ZM513.868 537.344C513.868 537.835 513.704 538.326 513.541 538.653C513.05 539.307 512.232 539.798 511.577 539.798C510.269 539.798 508.96 540.616 508.633 541.761C508.305 542.252 508.305 543.07 508.469 543.561C508.632 544.052 508.633 544.542 508.796 545.197C508.96 544.706 508.96 544.215 509.123 543.561C509.123 543.07 509.287 542.579 509.614 542.252C510.105 541.598 510.923 541.107 511.741 541.107C513.05 541.107 514.195 540.289 514.686 538.98C514.849 538.489 514.849 537.671 514.849 537.18C514.686 536.69 514.686 536.199 514.522 535.544C514.031 536.362 514.031 536.853 513.868 537.344ZM535.954 566.628C535.954 567.119 535.79 567.61 535.627 567.937C535.136 568.592 534.318 569.082 533.663 569.082C532.355 569.082 531.046 569.9 530.719 571.046C530.391 571.536 530.391 572.354 530.555 572.845C530.718 573.336 530.719 573.827 530.882 574.481C531.046 573.99 531.046 573.5 531.209 572.845C531.209 572.354 531.373 571.864 531.7 571.536C532.191 570.882 533.009 570.391 533.827 570.391C535.136 570.391 536.281 569.573 536.772 568.264C536.935 567.774 536.935 566.956 536.935 566.465C536.772 565.974 536.772 565.483 536.608 564.829C536.117 565.647 535.954 566.138 535.954 566.628Z" fill="white"/>
<path d="M541.843 563.356C525.156 562.866 508.469 563.684 491.945 564.665C487.201 564.992 482.457 565.32 477.876 565.974C477.712 565.974 477.712 566.138 477.876 566.138C486.219 566.138 494.563 565.81 502.743 565.647C511.087 565.32 519.43 564.992 527.774 564.502C532.518 564.174 537.099 564.011 541.843 563.52C542.007 563.684 542.007 563.356 541.843 563.356Z" fill="#263238"/>
<path d="M483.765 706.179H680.085C682.212 702.253 649.983 530.146 583.889 481.72C569.165 470.922 543.152 477.957 535.954 488.264C499.471 540.943 483.765 706.179 483.765 706.179Z" fill="#E2E1DF"/>
<path d="M567.038 560.248C567.529 560.084 568.019 560.084 568.674 559.921C569.165 559.757 569.819 559.757 570.473 560.084C571.619 560.575 572.6 561.72 572.6 563.029C572.6 563.847 572.927 564.665 573.745 565.156C574.073 565.32 574.563 565.483 575.054 565.647C575.545 565.81 576.036 565.81 576.69 565.974C576.199 566.138 575.709 566.138 575.054 566.301C574.563 566.465 573.909 566.465 573.255 566.138C572.109 565.647 571.291 564.338 571.291 563.193C571.291 562.375 570.801 561.557 570.146 561.23C569.819 561.066 569.328 560.902 568.837 560.902C568.183 560.412 567.692 560.412 567.038 560.248ZM597.631 664.134C598.122 664.134 598.613 664.298 598.94 664.461C599.594 664.952 600.085 665.77 600.085 666.424C600.085 667.733 600.903 669.042 602.048 669.369C602.539 669.696 603.357 669.696 603.848 669.533C604.339 669.369 604.829 669.369 605.484 669.206C604.993 669.042 604.502 669.042 603.848 668.878C603.357 668.878 602.866 668.715 602.539 668.388C601.885 667.897 601.394 667.079 601.394 666.261C601.394 664.952 600.576 663.807 599.267 663.316C598.776 663.152 597.958 663.152 597.467 663.152C596.977 663.316 596.486 663.316 595.831 663.48C596.486 663.97 597.14 663.97 597.631 664.134ZM633.623 566.138C634.114 566.138 634.605 566.301 634.932 566.465C635.586 566.956 636.077 567.774 636.077 568.428C636.077 569.737 636.895 571.046 638.04 571.373C638.531 571.7 639.349 571.7 639.84 571.536C640.331 571.373 640.821 571.373 641.476 571.209C640.985 571.046 640.494 571.046 639.84 570.882C639.349 570.882 638.858 570.718 638.531 570.391C637.877 569.9 637.386 569.082 637.386 568.264C637.386 566.956 636.568 565.81 635.259 565.32C634.768 565.156 633.95 565.156 633.459 565.156C632.969 565.32 632.478 565.32 631.823 565.483C632.641 565.974 633.132 566.138 633.623 566.138ZM541.516 513.458C542.007 513.458 542.498 513.622 542.825 513.786C543.479 514.276 543.97 515.094 543.97 515.749C543.97 517.058 544.788 518.366 545.933 518.694C546.424 519.021 547.242 519.021 547.733 518.857C548.224 518.694 548.715 518.694 549.369 518.53C548.878 518.366 548.387 518.366 547.733 518.203C547.242 518.203 546.751 518.039 546.424 517.712C545.77 517.221 545.279 516.403 545.279 515.585C545.279 514.276 544.461 513.131 543.152 512.64C542.661 512.477 541.843 512.477 541.353 512.477C540.862 512.64 540.371 512.64 539.717 512.804C540.535 513.295 541.025 513.458 541.516 513.458ZM598.285 512.313C598.776 512.313 599.267 512.477 599.594 512.64C600.249 513.131 600.739 513.949 600.739 514.604C600.739 515.912 601.557 517.221 602.703 517.548C603.193 517.876 604.011 517.876 604.502 517.712C604.993 517.548 605.484 517.548 606.138 517.385C605.647 517.221 605.157 517.221 604.502 517.058C604.011 517.058 603.521 516.894 603.193 516.567C602.539 516.076 602.048 515.258 602.048 514.44C602.048 513.131 601.23 511.986 599.921 511.495C599.431 511.332 598.613 511.332 598.122 511.332C597.631 511.495 597.14 511.495 596.486 511.659C597.14 512.15 597.631 512.313 598.285 512.313ZM527.61 603.929C528.101 603.929 528.592 604.093 528.919 604.256C529.573 604.747 530.064 605.565 530.064 606.22C530.064 607.528 530.882 608.837 532.027 609.164C532.518 609.492 533.336 609.492 533.827 609.328C534.318 609.164 534.809 609.164 535.463 609.001C534.972 608.837 534.481 608.837 533.827 608.674C533.336 608.674 532.845 608.51 532.518 608.183C531.864 607.692 531.373 606.874 531.373 606.056C531.373 604.747 530.555 603.602 529.246 603.111C528.755 602.948 527.937 602.948 527.447 602.948C526.956 603.111 526.465 603.111 525.811 603.275C526.629 603.766 527.119 603.766 527.61 603.929ZM589.451 698.817C589.942 698.817 590.433 698.981 590.76 699.144C591.414 699.635 591.905 700.453 591.905 701.108C591.905 702.416 592.723 703.725 593.868 704.052C594.359 704.38 595.177 704.38 595.668 704.216C596.159 704.052 596.649 704.052 597.304 703.889C596.813 703.725 596.322 703.725 595.668 703.562C595.177 703.562 594.686 703.398 594.359 703.071C593.705 702.58 593.214 701.762 593.214 700.944C593.214 699.635 592.396 698.49 591.087 697.999C590.596 697.836 589.778 697.836 589.287 697.836C588.797 697.999 588.306 697.999 587.651 698.163C588.469 698.654 588.96 698.654 589.451 698.817ZM559.021 647.774C559.512 647.774 560.003 647.938 560.33 648.101C560.985 648.592 561.475 649.41 561.475 650.064C561.475 651.373 562.293 652.682 563.439 653.009C563.929 653.336 564.747 653.336 565.238 653.173C565.729 653.009 566.22 653.009 566.874 652.846C566.383 652.682 565.893 652.682 565.238 652.518C564.747 652.518 564.257 652.355 563.929 652.028C563.275 651.537 562.784 650.719 562.784 649.901C562.784 648.592 561.966 647.447 560.657 646.956C560.167 646.792 559.349 646.792 558.858 646.792C558.367 646.956 557.876 646.956 557.222 647.12C558.04 647.61 558.531 647.61 559.021 647.774ZM489.328 699.962C488.837 699.962 488.346 699.799 488.019 699.472C487.365 698.981 486.874 698.163 486.874 697.345C486.874 696.2 486.056 694.891 485.074 694.564C485.074 695.054 484.911 695.382 484.911 695.709C485.401 696.2 485.565 696.69 485.565 697.345C485.565 698.654 486.383 699.962 487.528 700.29C488.019 700.617 488.837 700.617 489.328 700.453C489.819 700.29 490.309 700.29 490.964 700.126C490.309 700.126 489.819 700.126 489.328 699.962ZM502.743 657.099C503.234 657.099 503.725 657.263 504.052 657.426C504.706 657.917 505.197 658.735 505.197 659.39C505.197 660.698 506.015 662.007 507.16 662.334C507.651 662.662 508.469 662.662 508.96 662.498C509.451 662.334 509.941 662.334 510.596 662.171C510.105 662.007 509.614 662.007 508.96 661.844C508.469 661.844 507.978 661.68 507.651 661.353C506.997 660.862 506.506 660.044 506.506 659.226C506.506 657.917 505.688 656.772 504.379 656.281C503.888 656.118 503.07 656.118 502.579 656.118C502.089 656.281 501.598 656.281 500.943 656.445C501.598 656.936 502.252 656.936 502.743 657.099ZM584.87 605.074C585.361 605.074 585.852 605.238 586.179 605.402C586.833 605.892 587.324 606.71 587.324 607.365C587.324 608.674 588.142 609.982 589.287 610.31C589.778 610.637 590.596 610.637 591.087 610.473C591.578 610.31 592.069 610.31 592.723 610.146C592.232 609.982 591.741 609.982 591.087 609.819C590.596 609.819 590.105 609.655 589.778 609.328C589.124 608.837 588.633 608.019 588.633 607.201C588.633 605.892 587.815 604.747 586.506 604.256C586.015 604.093 585.197 604.093 584.707 604.093C584.216 604.256 583.725 604.256 583.071 604.42C583.889 604.911 584.379 605.074 584.87 605.074ZM656.854 674.932C657.345 674.932 657.836 675.095 658.163 675.259C658.817 675.75 659.308 676.568 659.308 677.222C659.308 678.531 660.126 679.84 661.271 680.167C661.762 680.494 662.58 680.494 663.071 680.33C663.562 680.167 664.053 680.167 664.707 680.003C664.216 679.84 663.725 679.84 663.071 679.676C662.58 679.676 662.089 679.512 661.762 679.185C661.108 678.694 660.617 677.876 660.617 677.058C660.617 675.75 659.799 674.604 658.49 674.114C657.999 673.95 657.181 673.95 656.691 673.95C656.2 674.114 655.709 674.114 655.055 674.277C655.873 674.768 656.363 674.768 656.854 674.932ZM628.388 632.396C628.879 632.396 629.369 632.559 629.697 632.723C630.351 633.214 630.842 634.032 630.842 634.686C630.842 635.995 631.66 637.304 632.805 637.631C633.296 637.958 634.114 637.958 634.605 637.794C635.095 637.631 635.586 637.631 636.241 637.467C635.75 637.304 635.259 637.304 634.605 637.14C634.114 637.14 633.623 636.976 633.296 636.649C632.641 636.158 632.151 635.34 632.151 634.522C632.151 633.214 631.333 632.068 630.024 631.578C629.533 631.414 628.715 631.414 628.224 631.414C627.733 631.578 627.243 631.578 626.588 631.741C627.243 632.232 627.897 632.232 628.388 632.396ZM543.479 543.561C542.989 543.888 542.661 544.052 542.334 544.215C541.516 544.379 540.535 544.215 540.044 543.561C539.226 542.743 537.753 542.252 536.608 542.906C535.954 543.07 535.627 543.561 535.299 544.052C534.972 544.542 534.645 544.87 534.481 545.36C534.972 545.033 535.299 544.706 535.79 544.542C536.281 544.215 536.608 544.052 536.935 543.888C537.753 543.724 538.571 543.888 539.226 544.542C540.207 545.524 541.68 545.688 542.825 545.197C543.316 545.033 543.807 544.379 544.134 544.052C544.461 543.561 544.788 543.234 544.952 542.743C544.297 542.906 543.97 543.234 543.479 543.561ZM628.061 604.42C627.57 604.747 627.243 604.911 626.915 605.074C626.097 605.238 625.116 605.074 624.625 604.42C623.807 603.602 622.335 603.111 621.189 603.766C620.535 603.929 620.208 604.42 619.881 604.911C619.553 605.402 619.226 605.729 619.063 606.22C619.553 605.892 619.881 605.565 620.371 605.402C620.862 605.074 621.189 604.911 621.517 604.747C622.335 604.584 623.153 604.747 623.807 605.402C624.789 606.383 626.261 606.547 627.406 606.056C627.897 605.892 628.388 605.238 628.715 604.911C629.042 604.42 629.369 604.093 629.533 603.602C629.042 603.766 628.551 604.093 628.061 604.42ZM575.381 491.045C574.891 491.372 574.563 491.536 574.236 491.7C573.418 491.863 572.437 491.7 571.946 491.045C571.128 490.227 569.655 489.736 568.51 490.391C567.856 490.554 567.529 491.045 567.201 491.536C566.874 492.027 566.547 492.354 566.383 492.845C566.874 492.518 567.201 492.19 567.692 492.027C568.183 491.7 568.51 491.536 568.837 491.372C569.655 491.209 570.473 491.372 571.128 492.027C572.109 493.008 573.582 493.172 574.727 492.681C575.218 492.518 575.709 491.863 576.036 491.536C576.363 491.045 576.69 490.718 576.854 490.227C576.199 490.391 575.709 490.718 575.381 491.045ZM574.236 524.583C574.236 525.074 574.073 525.565 573.909 525.892C573.418 526.546 572.6 527.037 571.946 527.037C570.637 527.037 569.328 527.855 569.001 529C568.674 529.491 568.674 530.309 568.837 530.8C569.001 531.291 569.001 531.782 569.165 532.436C569.328 531.945 569.328 531.454 569.492 530.8C569.492 530.309 569.655 529.818 569.983 529.491C570.473 528.837 571.291 528.346 572.109 528.346C573.418 528.346 574.563 527.528 575.054 526.219C575.218 525.728 575.218 524.91 575.218 524.42C575.054 523.929 575.054 523.438 574.891 522.784C574.4 523.602 574.4 524.092 574.236 524.583ZM561.803 616.526C561.803 617.017 561.639 617.508 561.475 617.835C560.985 618.49 560.167 618.98 559.512 618.98C558.203 618.98 556.895 619.798 556.567 620.944C556.24 621.434 556.24 622.252 556.404 622.743C556.567 623.234 556.567 623.725 556.731 624.379C556.895 623.888 556.895 623.398 557.058 622.743C557.058 622.252 557.222 621.762 557.549 621.434C558.04 620.78 558.858 620.289 559.676 620.289C560.985 620.289 562.13 619.471 562.621 618.162C562.784 617.672 562.784 616.854 562.784 616.363C562.621 615.872 562.621 615.381 562.457 614.727C561.966 615.545 561.966 616.036 561.803 616.526ZM627.079 536.526C627.079 536.526 626.915 536.526 626.752 536.526C625.443 536.526 624.134 537.344 623.807 538.489C623.643 538.98 623.48 539.798 623.643 540.289C623.807 540.78 623.807 541.27 623.971 541.925C624.134 541.434 624.134 540.943 624.298 540.289C624.298 539.798 624.461 539.307 624.789 538.98C625.279 538.326 626.097 537.835 626.915 537.835C627.243 537.835 627.57 537.835 627.733 537.671C627.406 537.18 627.243 536.853 627.079 536.526ZM626.588 685.075C626.588 685.566 626.425 686.056 626.261 686.384C625.77 687.038 624.952 687.529 624.298 687.529C622.989 687.529 621.68 688.347 621.353 689.492C621.026 689.983 621.026 690.801 621.189 691.292C621.353 691.782 621.353 692.273 621.517 692.928C621.68 692.437 621.68 691.946 621.844 691.292C621.844 690.801 622.007 690.31 622.335 689.983C622.825 689.328 623.643 688.838 624.461 688.838C625.77 688.838 626.915 688.02 627.406 686.711C627.57 686.22 627.57 685.402 627.57 684.911C627.406 684.42 627.406 683.93 627.243 683.275C626.752 683.93 626.752 684.584 626.588 685.075ZM654.727 601.639C654.727 601.639 654.727 601.802 654.727 601.639C654.237 602.457 653.419 602.948 652.601 602.948C651.292 602.948 650.147 603.766 649.656 604.911C649.329 605.402 649.329 606.22 649.492 606.71C649.656 607.201 649.656 607.692 649.819 608.346C649.983 607.856 649.983 607.365 650.147 606.71C650.147 606.22 650.31 605.729 650.637 605.402C651.128 604.747 651.946 604.256 652.764 604.256C653.746 604.256 654.727 603.766 655.218 602.948C655.055 602.62 654.891 602.13 654.727 601.639ZM511.087 619.962C511.087 620.453 510.923 620.944 510.759 621.271C510.269 621.925 509.451 622.416 508.796 622.416C507.487 622.416 506.179 623.234 505.851 624.379C505.524 624.87 505.524 625.688 505.688 626.179C505.851 626.67 505.851 627.16 506.015 627.815C506.179 627.324 506.179 626.833 506.342 626.179C506.342 625.688 506.506 625.197 506.833 624.87C507.324 624.216 508.142 623.725 508.96 623.725C510.269 623.725 511.414 622.907 511.905 621.598C512.068 621.107 512.068 620.289 512.068 619.798C511.905 619.308 511.905 618.817 511.741 618.162C511.25 618.817 511.25 619.308 511.087 619.962ZM514.522 537.508C514.195 538.489 514.031 539.307 513.704 540.289C514.031 539.962 514.195 539.634 514.359 539.144C514.686 538.653 514.522 537.998 514.522 537.508ZM543.97 483.683C543.97 484.174 543.807 484.665 543.643 484.992C543.152 485.646 542.334 486.137 541.68 486.137C540.371 486.137 539.062 486.955 538.735 488.1C538.408 488.591 538.408 489.409 538.571 489.9C538.735 490.391 538.735 490.882 538.899 491.536C539.062 491.045 539.062 490.554 539.226 489.9C539.226 489.409 539.389 488.918 539.717 488.591C540.207 487.937 541.025 487.446 541.843 487.446C543.152 487.446 544.297 486.628 544.788 485.319C544.952 484.828 544.952 484.01 544.952 483.52C544.788 483.029 544.788 482.538 544.625 481.884C544.134 482.702 544.134 483.192 543.97 483.683ZM535.954 566.628C535.954 567.119 535.79 567.61 535.627 567.937C535.136 568.592 534.318 569.082 533.663 569.082C532.355 569.082 531.046 569.9 530.719 571.046C530.391 571.536 530.391 572.354 530.555 572.845C530.719 573.336 530.719 573.827 530.882 574.481C531.046 573.99 531.046 573.5 531.209 572.845C531.209 572.354 531.373 571.864 531.7 571.536C532.191 570.882 533.009 570.391 533.827 570.391C535.136 570.391 536.281 569.573 536.772 568.264C536.935 567.774 536.935 566.956 536.935 566.465C536.772 565.974 536.772 565.483 536.608 564.829C536.117 565.647 535.954 566.138 535.954 566.628ZM608.429 577.753C608.429 578.244 608.265 578.735 608.101 579.062C607.611 579.716 606.793 580.207 606.138 580.207C604.829 580.207 603.521 581.025 603.193 582.17C602.866 582.661 602.866 583.479 603.03 583.97C603.193 584.461 603.193 584.952 603.357 585.606C603.521 585.115 603.521 584.624 603.684 583.97C603.684 583.479 603.848 582.988 604.175 582.661C604.666 582.007 605.484 581.516 606.302 581.516C607.611 581.516 608.756 580.698 609.247 579.389C609.41 578.898 609.41 578.08 609.41 577.59C609.247 577.099 609.247 576.608 609.083 575.954C608.592 576.772 608.592 577.262 608.429 577.753ZM541.353 671.005C541.353 671.496 541.189 671.987 541.025 672.314C540.535 672.968 539.717 673.459 539.062 673.459C537.753 673.459 536.445 674.277 536.117 675.422C535.79 675.913 535.79 676.731 535.954 677.222C536.117 677.713 536.117 678.204 536.281 678.858C536.445 678.367 536.445 677.876 536.608 677.222C536.608 676.731 536.772 676.24 537.099 675.913C537.59 675.259 538.408 674.768 539.226 674.768C540.535 674.768 541.68 673.95 542.171 672.641C542.334 672.15 542.334 671.332 542.334 670.842C542.171 670.351 542.171 669.86 542.007 669.206C541.516 669.86 541.516 670.351 541.353 671.005ZM597.631 548.96C598.122 548.632 598.449 548.469 598.776 548.305C599.594 548.142 600.576 548.305 601.067 548.96C601.885 549.778 603.357 550.268 604.502 549.614C605.157 549.45 605.484 548.96 605.811 548.469C606.138 547.978 606.465 547.651 606.629 547.16C606.138 547.487 605.811 547.814 605.32 547.978C604.829 548.305 604.502 548.469 604.175 548.632C603.357 548.796 602.539 548.632 601.885 547.978C600.903 546.996 599.431 546.833 598.285 547.324C597.795 547.487 597.304 548.142 596.977 548.469C596.649 548.96 596.322 549.287 596.159 549.778C596.813 549.614 597.304 549.287 597.631 548.96ZM555.422 587.406C555.913 587.078 556.24 586.915 556.567 586.751C557.385 586.588 558.367 586.751 558.858 587.406C559.676 588.224 561.148 588.714 562.293 588.06C562.948 587.896 563.275 587.406 563.602 586.915C563.929 586.424 564.257 586.097 564.42 585.606C563.929 585.933 563.602 586.26 563.111 586.424C562.621 586.751 562.293 586.915 561.966 587.078C561.148 587.242 560.33 587.078 559.676 586.424C558.694 585.442 557.222 585.279 556.077 585.77C555.586 585.933 555.095 586.588 554.768 586.915C554.441 587.406 554.113 587.733 553.95 588.224C554.441 588.06 554.931 587.733 555.422 587.406ZM526.629 643.848C527.119 643.52 527.447 643.357 527.774 643.193C528.592 643.03 529.573 643.193 530.064 643.848C530.882 644.666 532.355 645.156 533.5 644.502C534.154 644.338 534.481 643.848 534.809 643.357C535.136 642.866 535.463 642.539 535.627 642.048C535.136 642.375 534.809 642.702 534.318 642.866C533.827 643.193 533.5 643.357 533.173 643.52C532.355 643.684 531.537 643.52 530.882 642.866C529.901 641.884 528.428 641.721 527.283 642.212C526.792 642.375 526.301 643.03 525.974 643.357C525.647 643.848 525.32 644.175 525.156 644.666C525.811 644.502 526.301 644.175 526.629 643.848ZM539.062 702.58C539.553 702.253 539.88 702.089 540.207 701.926C541.025 701.762 542.007 701.926 542.498 702.58C543.316 703.398 544.788 703.889 545.933 703.234C546.588 703.071 546.915 702.58 547.242 702.089C547.569 701.598 547.897 701.271 548.06 700.78C547.569 701.108 547.242 701.435 546.751 701.598C546.261 701.926 545.933 702.089 545.606 702.253C544.788 702.416 543.97 702.253 543.316 701.598C542.334 700.617 540.862 700.453 539.717 700.944C539.226 701.108 538.735 701.762 538.408 702.089C538.081 702.58 537.753 702.907 537.59 703.398C538.244 703.234 538.571 702.907 539.062 702.58ZM594.523 638.122C595.013 637.794 595.341 637.631 595.668 637.467C596.486 637.304 597.467 637.467 597.958 638.122C598.776 638.94 600.249 639.43 601.394 638.776C602.048 638.612 602.375 638.122 602.703 637.631C603.03 637.14 603.357 636.813 603.521 636.322C603.03 636.649 602.703 636.976 602.212 637.14C601.721 637.467 601.394 637.631 601.067 637.794C600.249 637.958 599.431 637.794 598.776 637.14C597.795 636.158 596.322 635.995 595.177 636.486C594.686 636.649 594.195 637.304 593.868 637.631C593.541 638.122 593.214 638.449 593.05 638.94C593.705 638.612 594.195 638.285 594.523 638.122ZM632.805 661.516C633.296 661.189 633.623 661.026 633.95 660.862C634.768 660.698 635.75 660.862 636.241 661.516C637.059 662.334 638.531 662.825 639.676 662.171C640.331 662.007 640.658 661.516 640.985 661.026C641.312 660.535 641.639 660.208 641.803 659.717C641.312 660.044 640.985 660.371 640.494 660.535C640.003 660.862 639.676 661.026 639.349 661.189C638.531 661.353 637.713 661.189 637.059 660.535C636.077 659.553 634.605 659.39 633.459 659.88C632.969 660.044 632.478 660.698 632.151 661.026C631.823 661.516 631.496 661.844 631.333 662.334C631.987 662.007 632.314 661.68 632.805 661.516ZM568.51 679.185C569.001 678.858 569.328 678.694 569.655 678.531C570.473 678.367 571.455 678.531 571.946 679.185C572.764 680.003 574.236 680.494 575.381 679.84C576.036 679.676 576.363 679.185 576.69 678.694C577.017 678.204 577.345 677.876 577.508 677.386C577.017 677.713 576.69 678.04 576.199 678.204C575.709 678.531 575.381 678.694 575.054 678.858C574.236 679.022 573.418 678.858 572.764 678.204C571.782 677.222 570.31 677.058 569.165 677.549C568.674 677.713 568.183 678.367 567.856 678.694C567.529 679.185 567.201 679.512 567.038 680.003C567.692 679.84 568.019 679.512 568.51 679.185ZM651.455 702.58C651.946 702.253 652.273 702.089 652.601 701.926C653.419 701.762 654.4 701.926 654.891 702.58C655.709 703.398 657.181 703.889 658.327 703.234C658.981 703.071 659.308 702.58 659.635 702.089C659.963 701.598 660.29 701.271 660.453 700.78C659.963 701.108 659.635 701.435 659.145 701.598C658.654 701.926 658.327 702.089 657.999 702.253C657.181 702.416 656.363 702.253 655.709 701.598C654.727 700.617 653.255 700.453 652.11 700.944C651.619 701.108 651.128 701.762 650.801 702.089C650.474 702.58 650.147 702.907 649.983 703.398C650.474 703.234 650.965 702.907 651.455 702.58ZM666.179 638.94C665.852 638.776 665.525 638.612 665.198 638.285C664.216 637.467 662.744 637.14 661.599 637.631C661.108 637.794 660.617 638.449 660.29 638.776C659.963 639.267 659.635 639.594 659.472 640.085C659.963 639.758 660.29 639.43 660.781 639.267C661.271 638.94 661.599 638.776 661.926 638.612C662.744 638.449 663.725 638.612 664.216 639.267C664.871 639.921 665.689 640.248 666.507 640.248C666.507 639.921 666.343 639.43 666.179 638.94ZM509.451 687.202C509.941 686.874 510.269 686.711 510.596 686.547C511.414 686.384 512.395 686.547 512.886 687.202C513.704 688.02 515.177 688.51 516.322 687.856C516.976 687.692 517.303 687.202 517.631 686.711C517.958 686.22 518.285 685.893 518.449 685.402C517.958 685.729 517.631 686.056 517.14 686.22C516.649 686.547 516.322 686.711 515.995 686.874C515.177 687.038 514.359 686.874 513.704 686.22C512.723 685.238 511.25 685.075 510.105 685.566C509.614 685.729 509.123 686.384 508.796 686.711C508.469 687.202 508.142 687.529 507.978 688.02C508.469 687.856 508.96 687.529 509.451 687.202ZM504.706 588.714C505.197 588.387 505.524 588.224 505.851 588.06C506.669 587.896 507.651 588.06 508.142 588.714C508.96 589.532 510.432 590.023 511.577 589.369C512.232 589.205 512.559 588.714 512.886 588.224C513.213 587.733 513.541 587.406 513.704 586.915C513.213 587.242 512.886 587.569 512.395 587.733C511.905 588.06 511.577 588.224 511.25 588.387C510.432 588.551 509.614 588.387 508.96 587.733C507.978 586.751 506.506 586.588 505.361 587.078C504.87 587.242 504.379 587.896 504.052 588.224C503.725 588.714 503.397 589.042 503.234 589.532C503.725 589.369 504.215 589.042 504.706 588.714Z" fill="white"/>
<path d="M515.013 534.236C513.213 540.78 511.414 547.324 509.778 553.868C509.941 551.086 510.268 548.142 510.596 545.36C510.596 545.197 510.432 545.197 510.268 545.36C509.614 548.96 509.123 552.559 509.123 555.994C507.16 563.847 505.197 571.864 503.397 579.716C499.962 594.931 497.017 610.31 494.563 625.852C493.09 634.522 492.109 643.357 490.636 652.028C490.636 652.191 490.8 652.191 490.964 652.028C492.272 644.338 494.072 636.649 495.872 628.96C497.508 621.434 499.144 613.745 500.78 606.056C503.888 590.678 507.324 575.463 510.432 560.084C512.232 551.414 513.868 542.743 515.667 534.236C515.667 533.908 515.176 533.745 515.013 534.236Z" fill="#263238"/>
<path d="M507.324 432.313C509.451 444.256 502.743 455.38 492.273 457.344C481.802 459.307 471.659 451.127 469.369 439.184C467.242 427.241 473.95 416.116 484.42 414.153C494.89 412.19 505.197 420.37 507.324 432.313Z" fill="#455A64"/>
<path d="M513.541 431.986C515.995 445.237 508.469 457.671 496.853 459.798C485.238 461.924 473.786 452.926 471.495 439.675C469.041 426.423 476.567 413.99 488.183 411.863C499.798 409.572 511.25 418.734 513.541 431.986Z" fill="#C7C7C7"/>
<path d="M546.751 525.401C558.531 525.401 573.745 503.479 577.835 487.773C578.163 486.628 564.911 449.654 563.111 441.965C562.784 440.329 518.121 465.196 518.121 465.196C518.121 465.196 526.629 480.084 529.901 493.336C530.228 494.481 535.299 525.401 546.751 525.401Z" fill="#DD6A57"/>
<path d="M535.299 496.28C533.663 496.771 532.027 497.098 530.555 497.098C530.391 496.117 530.228 495.299 530.064 494.808V494.644C530.064 494.481 530.064 494.154 529.901 493.99V493.826V493.663C529.246 490.718 528.265 487.773 527.283 484.828C524.829 478.284 521.884 472.068 519.921 468.632C519.757 468.141 519.43 467.814 519.267 467.487C518.612 466.342 518.285 465.687 518.285 465.524C518.449 465.524 518.776 465.196 519.43 464.869C519.921 464.706 520.412 464.378 521.066 464.051C521.393 463.888 521.721 463.724 522.048 463.56C522.539 463.397 522.866 463.07 523.357 462.906C523.684 462.742 524.175 462.415 524.502 462.252C524.502 462.252 524.665 462.252 524.665 462.088C525.156 461.761 525.647 461.597 526.301 461.27C526.465 461.27 526.629 461.106 526.629 461.106C527.119 460.779 527.61 460.616 528.101 460.288C528.428 460.125 528.592 459.961 528.919 459.798C529.737 459.307 530.555 458.816 531.373 458.489C532.027 458.162 532.682 457.834 533.336 457.507C533.827 457.18 534.481 456.853 534.972 456.689C536.772 455.708 538.735 454.726 540.535 453.744C541.189 453.417 541.68 453.09 542.334 452.763C544.461 451.618 546.751 450.472 548.715 449.327C549.205 449.164 549.696 448.836 550.187 448.673C550.514 448.509 550.841 448.346 551.169 448.182C551.496 448.018 551.987 447.855 552.314 447.528C553.132 447.037 553.95 446.71 554.604 446.382C555.095 446.055 555.586 445.892 556.077 445.728C556.731 445.401 557.385 445.074 558.04 444.746C558.367 444.583 558.694 444.419 558.858 444.256C559.676 443.765 560.494 443.601 560.985 443.274C561.148 443.274 561.312 443.11 561.312 443.11C562.293 455.38 561.148 489.246 535.299 496.28Z" fill="#263238"/>
<path d="M549.86 384.705C560.494 399.593 567.692 450.309 559.348 464.869C547.406 485.974 520.085 496.771 500.125 480.575C480.821 464.869 472.641 398.775 482.457 384.705C497.017 363.928 534.154 362.783 549.86 384.705Z" fill="#DD6A57"/>
<path d="M511.905 429.368C511.905 429.204 512.232 429.532 512.232 429.695C512.559 433.131 513.704 437.057 516.976 437.712C517.14 437.712 517.14 437.875 516.976 437.875C513.05 437.875 511.741 432.64 511.905 429.368Z" fill="#263238"/>
<path d="M514.522 425.442C519.921 424.296 522.048 435.094 516.976 436.239C512.068 437.384 509.942 426.423 514.522 425.442Z" fill="#263238"/>
<path d="M493.418 433.458C493.418 433.294 493.254 433.622 493.254 433.785C494.072 437.221 494.236 441.147 491.455 442.783C491.291 442.783 491.455 442.947 491.455 442.947C495.054 441.802 494.563 436.566 493.418 433.458Z" fill="#263238"/>
<path d="M489.655 430.513C484.093 431.168 485.729 442.129 490.8 441.638C495.872 440.984 494.236 429.859 489.655 430.513Z" fill="#263238"/>
<path d="M517.958 419.552C516.322 419.388 515.013 419.061 513.377 418.898C511.577 418.57 510.269 418.57 508.96 417.262C508.305 416.607 508.142 415.135 508.796 414.317C510.105 412.517 512.395 412.354 514.522 412.681C516.813 413.008 518.449 413.826 520.085 415.462C521.557 417.098 519.921 419.716 517.958 419.552Z" fill="#263238"/>
<path d="M484.42 425.769C485.892 425.278 487.201 424.46 488.51 423.806C490.146 422.988 491.455 422.66 492.273 421.024C492.763 420.206 492.436 418.734 491.618 418.243C489.819 416.934 487.692 417.425 485.729 418.243C483.602 419.225 482.293 420.37 481.148 422.497C480.166 424.296 482.457 426.423 484.42 425.769Z" fill="#263238"/>
<path d="M521.884 460.125C521.23 461.106 520.575 462.252 519.43 462.579C518.285 462.906 516.813 462.579 515.668 462.415C515.504 462.415 515.504 462.579 515.504 462.579C516.649 463.724 518.612 464.215 520.085 463.56C521.557 463.07 522.048 461.597 522.212 460.125C522.212 459.961 522.048 459.961 521.884 460.125Z" fill="#263238"/>
<path d="M516.485 450.636C515.177 453.908 512.723 456.035 509.778 457.18C508.469 457.671 506.997 457.998 505.688 458.162C505.361 458.162 505.197 458.162 504.87 458.162C504.543 458.162 504.379 458.162 504.052 458.162C503.725 458.162 503.397 457.834 503.234 457.507C503.234 457.344 503.234 457.344 503.234 457.18V456.853C502.743 454.235 502.252 450.309 502.252 450.309C501.434 450.963 496.853 454.072 496.69 452.763C495.217 441.311 493.581 428.714 494.563 416.934C494.563 416.607 495.217 416.607 495.217 416.934C497.017 427.896 496.853 439.02 498.489 449.982C499.962 449.164 502.252 447.528 503.561 447.364C503.888 447.364 504.379 455.217 504.706 456.362C504.706 456.362 504.706 456.362 504.706 456.526C509.123 456.198 512.232 454.399 515.995 450.636C516.322 450.145 516.649 450.309 516.485 450.636Z" fill="#263238"/>
<path d="M506.833 456.526C506.833 456.526 509.778 459.143 513.05 459.798C514.359 459.961 515.504 459.961 516.813 459.307C519.43 458.162 518.939 455.544 518.121 453.581C517.467 451.945 516.322 450.472 516.322 450.472C516.322 450.472 513.05 454.89 506.833 456.526Z" fill="#263238"/>
<path d="M513.213 459.798C514.522 459.961 515.667 459.961 516.976 459.307C519.594 458.162 519.103 455.544 518.285 453.581C515.34 454.399 512.886 456.853 513.213 459.798Z" fill="#FF99BA"/>
<path opacity="0.2" d="M547.897 405.973C551.332 410.227 558.694 420.534 561.148 420.534C558.531 404.01 554.277 389.613 547.733 381.924C544.952 378.652 541.68 376.198 538.081 374.071C539.062 378.488 544.297 401.392 547.897 405.973Z" fill="#263238"/>
<path d="M498.653 395.83C502.743 399.593 508.632 401.229 514.195 399.756C519.594 398.284 524.502 393.867 525.81 388.468C525.81 388.304 526.138 388.304 526.138 388.468C524.665 394.358 520.575 399.593 514.522 401.065C508.796 402.538 502.252 400.574 498.326 396.157C498.326 395.994 498.489 395.666 498.653 395.83Z" fill="#263238"/>
<path d="M511.087 353.785C520.575 352.967 529.901 357.22 533.991 363.274C536.608 366.873 537.263 370.963 537.099 375.053C537.099 375.216 536.772 375.216 536.772 375.053C536.608 368.672 532.682 361.638 525.32 358.038C518.285 354.439 509.287 354.112 502.089 357.875C498.326 359.838 495.381 362.619 494.072 365.891C493.909 366.218 493.254 366.055 493.254 365.728C495.217 359.347 502.416 354.603 511.087 353.785Z" fill="#263238"/>
<path d="M458.571 380.452C459.553 375.707 462.334 371.29 466.26 368.182C471.659 363.928 478.203 363.764 484.911 363.601C485.074 363.601 485.074 363.928 484.911 363.928C479.348 363.928 473.622 364.419 468.878 367.527C464.951 370.145 461.843 374.071 460.534 378.488C457.753 387.814 462.497 398.448 471.659 402.374C476.731 404.501 482.784 404.501 487.855 402.21C488.019 402.047 488.183 402.374 488.019 402.538C478.857 406.955 467.078 403.846 461.679 395.012C458.571 390.922 457.426 385.523 458.571 380.452Z" fill="#263238"/>
<path d="M555.095 395.503C555.095 395.503 562.13 377.507 553.459 368.672C548.551 363.601 534.481 366.055 534.481 366.055C534.481 366.055 528.919 358.529 516.976 357.22C504.87 355.912 491.618 364.419 491.618 364.419C491.618 364.419 479.675 359.347 469.859 366.546C456.281 376.689 460.698 398.775 476.24 404.174C487.201 407.936 500.125 397.139 500.125 397.139C501.434 397.139 516.322 403.846 525.32 390.268C525.32 390.268 534.645 396.812 541.68 390.595C541.843 390.595 546.588 397.793 555.095 395.503Z" fill="#263238"/>
<path d="M519.103 444.256C510.923 444.746 503.888 438.53 503.397 430.35C502.906 422.17 509.123 415.135 517.303 414.644C525.483 414.153 532.518 420.37 533.009 428.55C533.5 435.421 529.082 441.474 522.702 443.438C521.557 443.928 520.412 444.256 519.103 444.256ZM505.524 430.35C506.015 437.384 512.068 442.783 519.103 442.292C526.138 441.802 531.536 435.748 531.046 428.714C530.555 421.679 524.502 416.28 517.467 416.771C516.322 416.771 515.34 417.098 514.358 417.425C508.96 419.061 505.197 424.296 505.524 430.35Z" fill="#D5CDC5"/>
<path d="M488.51 450.145C482.62 451.29 476.403 445.728 474.931 437.712C474.113 433.949 474.604 430.022 476.076 426.914C477.549 423.642 480.003 421.679 482.947 421.024C485.892 420.37 489.001 421.515 491.455 423.806C493.909 426.096 495.708 429.532 496.526 433.294C497.999 440.82 494.89 447.855 489.491 449.654C489.164 449.982 488.837 450.145 488.51 450.145ZM477.876 427.896C476.567 430.677 476.24 433.949 476.894 437.384C478.203 444.256 483.275 449.164 488.183 448.182C493.091 447.2 495.872 440.82 494.563 433.949C493.909 430.513 492.273 427.568 490.146 425.442C488.019 423.478 485.565 422.66 483.275 423.151C482.947 423.151 482.784 423.315 482.62 423.315C480.493 423.969 478.857 425.605 477.876 427.896Z" fill="#D5CDC5"/>
<path d="M504.379 431.986L505.361 430.186C502.743 428.714 497.181 427.241 494.399 431.822L496.035 432.804C498.489 428.877 504.052 431.822 504.379 431.986Z" fill="#D5CDC5"/>
<path d="M569.655 423.151L571.128 422.006C570.473 421.352 565.402 414.971 560.985 415.135C556.895 415.298 531.373 422.824 530.228 423.151L530.719 425.114C538.081 422.988 557.713 417.262 560.985 417.262C563.929 416.934 568.183 421.352 569.655 423.151Z" fill="#D5CDC5"/>
<path d="M552.641 427.078C552.641 427.078 558.694 408.1 566.874 409.9C575.218 411.536 573.909 436.73 566.71 442.292C559.348 448.018 553.95 441.311 553.95 441.311L552.641 427.078Z" fill="#DD6A57"/>
<path d="M566.383 416.934C566.547 416.934 566.547 417.098 566.547 417.098C561.475 421.188 560.167 427.568 559.676 433.785C560.657 431.168 562.784 429.204 566.22 430.35C566.383 430.35 566.383 430.677 566.22 430.677C563.602 430.84 562.13 431.822 561.148 434.276C560.494 435.912 560.167 437.875 559.839 439.675C559.676 440.329 558.694 440.329 558.694 439.675V439.511C556.077 432.313 558.694 420.206 566.383 416.934Z" fill="#263238"/>
<path d="M561.639 412.681C561.639 412.681 560.494 386.178 551.169 372.599C540.862 357.384 512.232 347.241 491.618 364.419C491.618 364.419 521.393 356.73 540.862 374.889C549.86 383.233 552.968 414.317 552.968 414.317L561.639 412.681Z" fill="#C7C7C7"/>
<path d="M562.303 450.847C574.078 449.653 582.524 437.827 581.165 424.433C579.807 411.039 569.159 401.149 557.383 402.343C545.607 403.537 537.162 415.363 538.521 428.758C539.879 442.152 550.527 452.041 562.303 450.847Z" fill="#C7C7C7"/>
<path d="M544.625 427.241C545.77 439.348 555.422 448.182 566.056 447.037C576.69 445.892 584.216 435.258 582.907 423.315C581.762 411.208 572.109 402.374 561.475 403.519C551.005 404.664 543.479 415.298 544.625 427.241Z" fill="#455A64"/>
<path d="M609.083 498.734C640.821 532.763 716.241 660.208 691.701 683.602C666.997 707.324 531.536 675.422 493.418 657.263C482.129 651.864 525.156 581.189 538.571 579.553C549.696 578.244 606.465 604.093 608.101 600.821C609.901 597.058 597.14 573.5 583.398 524.256C567.528 467.487 595.013 483.847 609.083 498.734Z" fill="#DD6A57"/>
<path d="M482.129 556.812C454.644 553.05 446.955 556.158 425.36 540.616C411.29 530.309 398.693 535.054 406.71 551.25C419.961 577.917 454.481 590.187 467.569 591.168L482.129 556.812Z" fill="#DD6A57"/>
<path d="M554.083 583.476C554.083 583.476 523.162 566.298 494.205 559.263C474.246 554.355 429.42 548.793 386.556 592.965C376.413 603.435 369.378 625.521 392.119 614.56C408.315 606.707 416.168 596.727 426.475 593.946C426.475 593.946 420.912 623.231 431.71 632.883C436.618 637.3 450.197 648.916 461.976 656.441C461.976 656.441 464.266 654.315 466.884 651.206C466.884 651.206 477.845 659.386 498.622 657.423L554.083 583.476Z" fill="#DD6A57"/>
<path d="M475.585 557.63C465.933 562.702 445.81 573.5 432.558 588.224C417.671 604.584 393.622 639.921 405.728 650.719C414.562 658.735 425.033 645.974 425.033 645.974C425.033 645.974 418.162 662.662 427.65 668.06C436.321 672.968 443.847 662.662 443.847 662.662C443.847 662.662 441.393 673.459 450.718 676.731C462.006 680.494 465.278 657.099 480.002 651.046C483.274 649.574 475.585 557.63 475.585 557.63Z" fill="#DD6A57"/>
<path d="M452.354 600.984C444.174 607.201 428.959 626.015 424.869 645.484C424.706 645.974 425.033 646.302 425.196 645.811C434.358 625.361 446.792 608.183 452.354 600.984C452.681 600.984 452.518 600.984 452.354 600.984Z" fill="#263238"/>
<path d="M468.387 616.363C461.843 622.416 447.119 642.539 443.52 662.334C443.52 662.825 443.683 662.989 443.847 662.662C452.681 641.066 463.315 623.888 468.387 616.363C468.551 616.526 468.551 616.363 468.387 616.363Z" fill="#263238"/>
<path d="M427.814 593.622C418.816 596.24 412.926 600.657 405.401 605.892C401.638 608.51 397.875 611.128 393.785 613.254C390.186 615.218 384.787 618.162 380.861 615.054C378.734 613.254 378.734 610.146 379.225 607.692C379.716 604.911 380.861 602.293 382.497 600.003C382.66 599.839 382.333 599.676 382.333 599.839C380.861 601.966 379.552 604.093 378.57 606.547C377.752 608.674 377.098 611.291 377.752 613.582C379.061 618.49 384.951 619.144 389.041 617.835C391.495 617.017 393.785 615.708 396.076 614.4C398.202 613.091 400.329 611.782 402.456 610.473C406.71 607.528 410.8 604.42 415.053 601.475C419.634 598.203 422.906 596.731 427.978 593.95C428.141 593.786 427.978 593.459 427.814 593.622Z" fill="#263238"/>
<path d="M409 625.197C411.291 620.126 423.888 598.694 427.978 593.786C428.141 593.622 427.978 593.459 427.814 593.622C420.779 600.33 409.491 617.835 406.873 623.561C404.256 629.124 401.311 636.322 401.311 642.539C401.311 651.864 407.528 653.664 409.818 654.154C412.599 654.645 415.38 654.154 417.834 652.846C420.616 651.373 423.233 648.428 425.033 645.974C425.196 645.811 425.033 645.647 424.869 645.811C421.597 649.574 416.199 653.173 411.127 652.518C408.837 652.191 406.71 651.21 405.401 649.41C403.765 647.283 403.765 644.338 403.928 641.884C404.419 635.995 406.546 630.432 409 625.197Z" fill="#263238"/>
<path d="M443.52 662.498C442.211 663.643 439.593 667.57 435.176 668.388C432.068 669.042 428.796 668.715 426.342 666.424C424.051 664.134 423.07 661.026 422.906 657.917C422.742 656.118 424.215 648.428 424.869 646.138C424.869 645.974 424.706 645.811 424.706 645.974C423.397 650.064 421.924 654.645 421.924 658.735C421.924 662.171 423.07 665.77 425.524 668.06C428.141 670.514 431.904 671.332 435.34 670.024C436.976 669.369 442.211 665.934 443.847 662.662C444.01 662.662 443.683 662.498 443.52 662.498Z" fill="#263238"/>
<path d="M479.185 649.246C477.712 650.064 476.403 651.373 475.258 652.682C473.949 653.991 472.641 655.3 471.495 656.608C469.041 659.226 466.915 662.334 464.951 665.443C462.988 668.551 461.352 672.15 458.244 674.441C455.135 676.568 451.045 676.895 447.937 674.768C446.301 673.623 445.319 671.987 444.665 670.024C444.174 668.06 443.847 665.606 444.011 663.643C444.011 663.48 443.847 663.48 443.683 663.643C443.52 665.606 443.029 667.406 443.193 669.533C443.356 671.332 444.011 672.968 444.992 674.441C447.119 677.386 451.045 678.694 454.645 678.04C458.571 677.386 461.516 674.441 463.643 671.169C465.933 667.57 467.896 663.807 470.514 660.371C471.823 658.572 473.131 656.772 474.604 654.972C476.076 653.173 477.876 651.537 479.348 649.737C479.512 649.41 479.348 649.246 479.185 649.246Z" fill="#263238"/>
<path d="M490.146 657.263C487.201 656.936 480.33 655.954 475.094 654.154C474.931 654.154 474.767 654.482 474.931 654.645C476.894 655.79 481.148 656.772 482.456 657.099C484.91 657.59 487.692 657.917 490.309 657.59C490.309 657.59 490.309 657.263 490.146 657.263Z" fill="#263238"/>
<path d="M659.308 625.688C651.455 620.289 642.948 615.708 634.277 611.455C625.77 607.365 616.772 604.093 607.774 601.148C602.539 599.512 597.467 598.203 592.232 596.731C592.068 596.731 592.068 596.894 592.232 597.058C601.394 599.839 610.228 603.275 618.899 607.038C627.57 610.8 636.24 614.727 644.748 618.817C649.656 621.107 654.236 623.725 658.981 626.179C659.308 626.179 659.472 625.852 659.308 625.688Z" fill="#263238"/>
<path d="M674.032 578.898L597.14 576.281C597.14 576.281 582.743 538.326 577.344 504.46C571.946 470.595 599.594 480.902 628.551 517.221C657.345 553.377 674.032 578.898 674.032 578.898Z" fill="#E2E1DF"/>
<path d="M605.647 548.142C605.156 548.469 604.829 548.632 604.338 548.796C603.52 548.96 602.702 548.796 602.048 548.142C601.066 547.324 599.594 546.996 598.449 547.487C597.794 547.651 597.467 548.142 597.14 548.632C596.813 549.123 596.486 549.45 596.322 549.941C596.813 549.614 597.14 549.287 597.631 549.123C598.122 548.796 598.449 548.632 598.776 548.469C599.594 548.305 600.576 548.469 601.066 549.123C601.884 549.941 603.357 550.432 604.502 549.778C605.156 549.614 605.484 549.123 605.811 548.632C606.138 548.142 606.465 547.814 606.629 547.324C606.465 547.487 606.138 547.814 605.647 548.142ZM629.86 533.908C629.696 533.418 629.696 532.927 629.533 532.272C629.369 532.763 629.369 533.254 629.206 533.908C629.206 534.399 629.042 534.89 628.878 535.217C628.388 536.035 627.57 536.362 626.752 536.362C625.443 536.362 624.134 537.18 623.807 538.326C623.643 538.816 623.48 539.634 623.643 540.125C623.807 540.616 623.807 541.107 623.97 541.761C624.134 541.27 624.134 540.78 624.298 540.125C624.298 539.634 624.461 539.144 624.788 538.816C625.279 538.162 626.097 537.671 626.915 537.671C628.224 537.671 629.369 536.853 629.86 535.544C630.024 535.217 630.024 534.399 629.86 533.908ZM602.866 491.7C602.866 491.863 602.866 492.027 602.866 492.19C603.03 492.681 603.03 493.172 603.193 493.663C603.357 493.172 603.357 492.681 603.52 492.19C603.357 492.027 603.03 491.863 602.866 491.7ZM657.672 555.667C657.018 555.667 656.527 555.34 656.2 555.013C655.382 554.031 653.909 553.704 652.764 554.358C652.11 554.522 651.782 555.013 651.455 555.504C651.128 555.994 650.801 556.322 650.637 556.812C651.128 556.485 651.455 556.158 651.946 555.994C652.437 555.667 652.764 555.504 653.091 555.34C653.909 555.176 654.727 555.34 655.382 555.994C656.2 556.812 657.508 557.14 658.49 556.812C658.163 556.322 657.999 555.994 657.672 555.667ZM604.502 517.385C604.011 517.385 603.52 517.221 603.193 516.894C602.539 516.403 602.048 515.585 602.048 514.767C602.048 513.458 601.23 512.15 599.921 511.822C599.267 511.659 598.612 511.659 598.122 511.659C597.631 511.822 597.14 511.822 596.486 511.986C596.976 512.15 597.467 512.15 598.122 512.313C598.612 512.313 599.103 512.477 599.43 512.64C600.248 513.131 600.576 513.949 600.576 514.767C600.576 516.076 601.394 517.385 602.539 517.712C603.03 517.876 603.848 518.039 604.338 517.876C604.829 517.712 605.32 517.712 605.974 517.548C605.484 517.548 604.993 517.385 604.502 517.385ZM639.84 571.209C639.349 571.209 638.858 571.046 638.531 570.718C637.876 570.228 637.386 569.41 637.386 568.592C637.386 567.283 636.568 566.138 635.259 565.647C634.768 565.483 633.95 565.483 633.459 565.483C632.968 565.647 632.478 565.647 631.823 565.81C632.314 565.974 632.805 565.974 633.459 566.138C633.95 566.138 634.441 566.301 634.768 566.465C635.586 566.956 635.913 567.774 635.913 568.592C635.913 569.9 636.731 571.209 637.876 571.536C638.367 571.864 639.185 571.864 639.676 571.7C640.167 571.536 640.658 571.536 641.312 571.373C640.985 571.373 640.33 571.209 639.84 571.209Z" fill="white"/>
<path d="M600.248 576.117C599.758 576.117 597.14 575.626 597.14 575.626C596.976 574.645 592.559 558.776 591.414 555.34C589.124 548.305 586.342 541.434 583.561 534.399C583.398 534.236 583.07 534.236 583.234 534.563C585.034 540.452 586.67 546.506 588.306 552.395C587.815 551.577 587.16 550.759 586.67 549.778C585.688 547.978 584.706 546.178 583.725 544.379C583.561 544.215 583.398 544.379 583.398 544.542C584.216 546.996 585.361 549.45 586.833 551.577C587.488 552.559 588.142 553.377 588.796 554.358C588.96 554.849 589.124 555.34 589.287 555.831C590.432 559.266 595.995 576.444 596.322 576.444C596.322 576.444 599.103 576.444 600.085 576.444C600.412 576.608 600.412 576.117 600.248 576.117Z" fill="#263238"/>
<path d="M661.598 564.011C645.075 562.702 628.224 562.702 611.7 562.866C606.956 562.866 602.212 563.193 597.631 563.356C597.467 563.356 597.467 563.52 597.631 563.52C605.974 564.011 614.318 564.011 622.498 564.174C630.842 564.338 639.185 564.338 647.529 564.338C652.273 564.338 657.018 564.174 661.598 564.174C661.762 564.338 661.762 564.011 661.598 564.011Z" fill="#263238"/>
<path d="M394.677 702.16L406.434 702.88L406.903 695.205L395.146 694.486L394.677 702.16Z" fill="#455A64"/>
<path d="M379.473 700.706L391.231 701.425L391.7 693.75L379.943 693.031L379.473 700.706Z" fill="#455A64"/>
<path d="M364.434 699.262L376.191 699.981L376.66 692.306L364.903 691.587L364.434 699.262Z" fill="#455A64"/>
<path d="M349.221 697.971L360.978 698.69L361.447 691.015L349.69 690.296L349.221 697.971Z" fill="#455A64"/>
<path d="M334.017 696.517L345.775 697.236L346.244 689.561L334.487 688.842L334.017 696.517Z" fill="#455A64"/>
<path d="M318.814 695.063L330.572 695.782L331.041 688.107L319.284 687.388L318.814 695.063Z" fill="#455A64"/>
<path d="M303.611 693.609L315.369 694.328L315.838 686.653L304.081 685.934L303.611 693.609Z" fill="#455A64"/>
<path d="M288.408 692.155L300.165 692.874L300.635 685.199L288.878 684.48L288.408 692.155Z" fill="#455A64"/>
<path d="M273.205 690.701L284.962 691.42L285.432 683.745L273.675 683.026L273.205 690.701Z" fill="#455A64"/>
<path d="M269.902 699.053L409.029 707.562L409.599 698.254L270.711 685.826L269.902 699.053Z" fill="#37474F"/>
<path d="M134.152 661.512H364.337L327.691 490.06H97.6692L134.152 661.512Z" fill="#455A64"/>
<path d="M125.645 661.512H355.83L319.184 490.06H88.9984L125.645 661.512Z" fill="#37474F"/>
<path d="M202.537 565.806C203.846 573.659 211.208 580.04 219.06 580.04C226.913 580.04 232.312 573.659 231.003 565.806C229.694 557.954 222.332 551.573 214.48 551.573C206.627 551.573 201.392 557.954 202.537 565.806Z" fill="#263238"/>
<path d="M190.758 706.175H303.969V697.341L190.758 693.742V706.175Z" fill="#455A64"/>
<path d="M160.001 706.175H220.696L257.343 610.142H196.647L160.001 706.175Z" fill="#455A64"/>
<path d="M150.021 706.175H210.717L247.363 610.142H186.668L150.021 706.175Z" fill="#263238"/>
<path d="M414.072 706.466C414.072 706.466 520.739 706.466 530.718 706.466C540.698 706.466 526.301 678.163 489.982 667.202C453.499 656.404 402.456 695.832 414.072 706.466Z" fill="#37474F"/>
<path d="M459.716 706.466C459.062 703.357 458.08 700.249 456.935 697.304C455.79 694.359 454.481 691.578 452.845 688.797C451.209 686.016 449.246 683.562 447.119 681.271L445.483 679.635L443.683 678.163C442.538 677.018 441.066 676.363 439.92 675.382C442.865 676.69 445.81 678.163 448.1 680.453C450.554 682.58 452.681 685.198 454.317 687.979C455.953 690.76 457.262 693.705 458.244 696.813C459.062 700.085 459.716 703.357 459.716 706.466Z" fill="#263238"/>
<path d="M445.974 679.472C444.338 680.29 442.702 681.108 441.229 682.089C439.593 682.907 438.121 683.889 436.485 684.707C433.376 686.506 430.268 688.47 427.487 690.433C424.542 692.56 421.761 694.686 419.307 697.304C418.162 698.613 417.016 699.922 416.035 701.558C415.053 703.03 414.399 704.666 413.908 706.466C413.908 704.666 414.562 702.866 415.217 701.23C416.035 699.594 417.016 698.122 418.162 696.65C420.452 693.868 423.397 691.414 426.342 689.288C429.286 687.161 432.395 685.361 435.667 683.725C439.102 682.089 442.538 680.617 445.974 679.472Z" fill="#263238"/>
<path d="M633.132 618.901L626.261 706.1H578.326L571.291 618.901H633.132Z" fill="#EDECEA"/>
<path opacity="0.1" d="M633.132 618.901L626.261 706.1H578.326L571.291 618.901H633.132Z" fill="black"/>
<path d="M637.222 611.048H566.874V623.809H637.222V611.048Z" fill="#455A64"/>
<path d="M632.478 611.048H571.618L575.218 596.815H628.878L632.478 611.048Z" fill="#37474F"/>
<path d="M618.899 663.237C618.899 674.525 611.373 683.687 602.212 683.687C593.05 683.687 585.524 674.525 585.524 663.237C585.524 651.948 593.05 642.787 602.212 642.787C611.373 642.787 618.899 651.948 618.899 663.237Z" fill="white"/>
</svg>
