<svg width="20" height="20" viewBox="0 0 20 20" fill="none" xmlns="http://www.w3.org/2000/svg">
<g id="Github">
<path id="Github_2" d="M10.002 0C4.47838 0 0 4.47838 0 10.002C0 14.6887 3.2273 18.6103 7.57816 19.6955C7.53148 19.5605 7.50148 19.4038 7.50148 19.2096V17.5001C7.09556 17.5001 6.41543 17.5001 6.24456 17.5001C5.56026 17.5001 4.95181 17.2059 4.65675 16.6591C4.32919 16.0515 4.27251 15.1221 3.46068 14.5537C3.2198 14.3645 3.40317 14.1486 3.68073 14.1778C4.19333 14.3228 4.61841 14.6746 5.01849 15.1963C5.4169 15.7189 5.60444 15.8373 6.34875 15.8373C6.70966 15.8373 7.24976 15.8164 7.7582 15.7364C8.03158 15.0421 8.50418 14.4028 9.08179 14.1011C5.75113 13.7585 4.16165 12.1016 4.16165 9.85194C4.16165 8.88342 4.57423 7.94657 5.27521 7.15724C5.04516 6.37376 4.75594 4.77594 5.36356 4.16749C6.86219 4.16749 7.7682 5.13935 7.98574 5.4019C8.73255 5.14601 9.55272 5.00099 10.4146 5.00099C11.2781 5.00099 12.1016 5.14601 12.85 5.40356C13.0651 5.14268 13.9719 4.16749 15.4739 4.16749C16.084 4.77677 15.7914 6.38126 15.5589 7.16308C16.2557 7.95073 16.6658 8.88508 16.6658 9.85194C16.6658 12.0999 15.0788 13.756 11.7531 14.1003C12.6683 14.5779 13.336 15.9198 13.336 16.9308V19.2096C13.336 19.2963 13.3168 19.3588 13.3068 19.433C17.2042 18.0669 20.0039 14.3662 20.0039 10.002C20.0039 4.47838 15.5256 0 10.002 0Z" fill="#323E65"/>
</g>
</svg>
