<svg width="20" height="20" viewBox="0 0 20 20" fill="none" xmlns="http://www.w3.org/2000/svg">
<g id="Instagram">
<path id="Instagram_2" d="M5.83286 0C2.61639 0 0 2.61881 0 5.83611V14.1711C0 17.3876 2.61881 20.0039 5.83611 20.0039H14.1711C17.3876 20.0039 20.0039 17.3851 20.0039 14.1678V5.83286C20.0039 2.61639 17.3851 0 14.1678 0H5.83286ZM15.8365 3.33399C16.2965 3.33399 16.67 3.7074 16.67 4.16749C16.67 4.62758 16.2965 5.00099 15.8365 5.00099C15.3764 5.00099 15.003 4.62758 15.003 4.16749C15.003 3.7074 15.3764 3.33399 15.8365 3.33399ZM10.002 5.00099C12.76 5.00099 15.003 7.24393 15.003 10.002C15.003 12.76 12.76 15.003 10.002 15.003C7.24393 15.003 5.00099 12.76 5.00099 10.002C5.00099 7.24393 7.24393 5.00099 10.002 5.00099ZM10.002 6.66798C9.11774 6.66798 8.26973 7.01924 7.64448 7.64448C7.01924 8.26973 6.66798 9.11774 6.66798 10.002C6.66798 10.8862 7.01924 11.7342 7.64448 12.3595C8.26973 12.9847 9.11774 13.336 10.002 13.336C10.8862 13.336 11.7342 12.9847 12.3595 12.3595C12.9847 11.7342 13.336 10.8862 13.336 10.002C13.336 9.11774 12.9847 8.26973 12.3595 7.64448C11.7342 7.01924 10.8862 6.66798 10.002 6.66798Z" fill="#323E65"/>
</g>
</svg>
