<svg width="20" height="20" viewBox="0 0 20 20" fill="none" xmlns="http://www.w3.org/2000/svg">
<g id="linkedin">
<path id="linkedin_2" d="M17.625 0H2.38176C1.06703 0 0 1.06703 0 2.38176V17.625C0 18.9397 1.06703 20.0068 2.38176 20.0068H17.625C18.9397 20.0068 20.0068 18.9397 20.0068 17.625V2.38176C20.0068 1.06703 18.9397 0 17.625 0ZM6.19257 7.62163V16.6723H3.33446V7.62163H6.19257ZM3.33446 4.9874C3.33446 4.32051 3.90608 3.81081 4.76352 3.81081C5.62095 3.81081 6.15923 4.32051 6.19257 4.9874C6.19257 5.65429 5.65906 6.19257 4.76352 6.19257C3.90608 6.19257 3.33446 5.65429 3.33446 4.9874ZM16.6723 16.6723H13.8142C13.8142 16.6723 13.8142 12.2613 13.8142 11.9088C13.8142 10.9561 13.3378 10.0034 12.147 9.98433H12.1089C10.9561 9.98433 10.4797 10.9656 10.4797 11.9088C10.4797 12.3423 10.4797 16.6723 10.4797 16.6723H7.62163V7.62163H10.4797V8.84109C10.4797 8.84109 11.3991 7.62163 13.2473 7.62163C15.1385 7.62163 16.6723 8.92207 16.6723 11.5563V16.6723Z" fill="#323E65"/>
</g>
</svg>
