<svg width="14" height="6" viewBox="0 0 14 6" fill="none" xmlns="http://www.w3.org/2000/svg">
<path d="M13.7072 2.46812L10.7072 0.211183C10.5186 0.0741434 10.266 -0.00168562 10.0038 2.86102e-05C9.74155 0.00174284 9.49073 0.0808625 9.30532 0.220347C9.11991 0.359831 9.01474 0.548521 9.01246 0.745774C9.01019 0.943028 9.11098 1.13306 9.29314 1.27495L10.5862 2.24769H1.00002C0.734795 2.24769 0.480437 2.32695 0.292898 2.46804C0.105359 2.60912 0 2.80047 0 3C0 3.19953 0.105359 3.39088 0.292898 3.53196C0.480437 3.67305 0.734795 3.75231 1.00002 3.75231H10.5862L9.29314 4.72505C9.11098 4.86694 9.01019 5.05697 9.01246 5.25423C9.01474 5.45148 9.11991 5.64017 9.30532 5.77965C9.49073 5.91914 9.74155 5.99826 10.0038 5.99997C10.266 6.00169 10.5186 5.92586 10.7072 5.78882L13.7072 3.53188C13.8947 3.3908 14 3.19949 14 3C14 2.80051 13.8947 2.6092 13.7072 2.46812Z" fill="#323E65"/>
</svg>
